<?xml version="1.0" encoding="UTF-8"?>
<!DOCTYPE svg PUBLIC "-//W3C//DTD SVG 1.1//EN" "http://www.w3.org/Graphics/SVG/1.1/DTD/svg11.dtd">
<svg xmlns="http://www.w3.org/2000/svg" version="1.1" width="500px" height="500px" style="shape-rendering:geometricPrecision; text-rendering:geometricPrecision; image-rendering:optimizeQuality; fill-rule:evenodd; clip-rule:evenodd" xmlns:xlink="http://www.w3.org/1999/xlink">
<g><path style="opacity:0.004" fill="#000000" d="M 336.5,19.5 C 337.833,20.1667 337.833,20.1667 336.5,19.5 Z"/></g>
<g><path style="opacity:0.004" fill="#000000" d="M 333.5,24.5 C 334.833,25.1667 334.833,25.1667 333.5,24.5 Z"/></g>
<g><path style="opacity:0.004" fill="#000000" d="M 306.5,25.5 C 307.833,26.1667 307.833,26.1667 306.5,25.5 Z"/></g>
<g><path style="opacity:0.004" fill="#000000" d="M 252.5,28.5 C 253.833,29.1667 253.833,29.1667 252.5,28.5 Z"/></g>
<g><path style="opacity:0.004" fill="#000000" d="M 267.5,35.5 C 268.833,36.1667 268.833,36.1667 267.5,35.5 Z"/></g>
<g><path style="opacity:0.004" fill="#000000" d="M 277.5,44.5 C 278.833,45.1667 278.833,45.1667 277.5,44.5 Z"/></g>
<g><path style="opacity:0.004" fill="#000000" d="M 487.5,44.5 C 488.833,45.1667 488.833,45.1667 487.5,44.5 Z"/></g>
<g><path style="opacity:0.004" fill="#000000" d="M 244.5,49.5 C 245.833,50.1667 245.833,50.1667 244.5,49.5 Z"/></g>
<g><path style="opacity:0.004" fill="#000000" d="M 309.5,49.5 C 310.833,50.1667 310.833,50.1667 309.5,49.5 Z"/></g>
<g><path style="opacity:0.004" fill="#000000" d="M 418.5,55.5 C 419.833,56.1667 419.833,56.1667 418.5,55.5 Z"/></g>
<g><path style="opacity:1" fill="#f8faf3" d="M 251.5,62.5 C 250.24,62.7986 249.073,62.7986 248,62.5C 247.5,72.828 247.334,83.1613 247.5,93.5C 247.5,93.8333 247.5,94.1667 247.5,94.5C 245.914,95.1481 244.247,95.6481 242.5,96C 233.814,101.296 225.147,106.463 216.5,111.5C 216.376,100.837 216.043,90.1702 215.5,79.5C 215.833,78.8333 216.167,78.1667 216.5,77.5C 226.437,71.5259 236.437,65.5259 246.5,59.5C 248.598,59.9572 250.264,60.9572 251.5,62.5 Z"/></g>
<g><path style="opacity:0.004" fill="#000000" d="M 466.5,69.5 C 467.833,70.1667 467.833,70.1667 466.5,69.5 Z"/></g>
<g><path style="opacity:1" fill="#bef0ed" d="M 251.5,62.5 C 260.175,67.5034 268.841,72.5034 277.5,77.5C 278.299,84.8194 278.965,92.1527 279.5,99.5C 280.463,103.796 280.629,108.129 280,112.5C 279.617,111.944 279.117,111.611 278.5,111.5C 277.833,111.5 277.167,111.5 276.5,111.5C 267.345,104.752 257.678,98.7516 247.5,93.5C 247.334,83.1613 247.5,72.828 248,62.5C 249.073,62.7986 250.24,62.7986 251.5,62.5 Z"/></g>
<g><path style="opacity:0.004" fill="#000000" d="M 294.5,71.5 C 295.833,72.1667 295.833,72.1667 294.5,71.5 Z"/></g>
<g><path style="opacity:0.004" fill="#000000" d="M 312.5,71.5 C 313.833,72.1667 313.833,72.1667 312.5,71.5 Z"/></g>
<g><path style="opacity:0.004" fill="#000000" d="M 434.5,74.5 C 435.833,75.1667 435.833,75.1667 434.5,74.5 Z"/></g>
<g><path style="opacity:0.004" fill="#000000" d="M 77.5,79.5 C 78.8333,80.1667 78.8333,80.1667 77.5,79.5 Z"/></g>
<g><path style="opacity:0.004" fill="#000000" d="M 470.5,83.5 C 471.833,84.1667 471.833,84.1667 470.5,83.5 Z"/></g>
<g><path style="opacity:0.004" fill="#000000" d="M 424.5,84.5 C 425.833,85.1667 425.833,85.1667 424.5,84.5 Z"/></g>
<g><path style="opacity:0.004" fill="#000000" d="M 496.5,84.5 C 497.833,85.1667 497.833,85.1667 496.5,84.5 Z"/></g>
<g><path style="opacity:0.004" fill="#000000" d="M 40.5,86.5 C 41.8333,87.1667 41.8333,87.1667 40.5,86.5 Z"/></g>
<g><path style="opacity:0.004" fill="#000000" d="M 56.5,89.5 C 57.8333,90.1667 57.8333,90.1667 56.5,89.5 Z"/></g>
<g><path style="opacity:1" fill="#cff7f0" d="M 215.5,79.5 C 216.043,90.1702 216.376,100.837 216.5,111.5C 217.9,112.1 218.9,113.1 219.5,114.5C 217.83,114.249 216.33,113.582 215,112.5C 214.601,112.728 214.435,113.062 214.5,113.5C 211.738,114.38 209.071,115.546 206.5,117C 201.084,120.03 196.084,123.53 191.5,127.5C 186.159,130.503 180.825,133.503 175.5,136.5C 173.167,137.833 170.833,139.167 168.5,140.5C 168.369,139.761 168.536,139.094 169,138.5C 170.738,135.768 173.238,134.268 176.5,134C 178.041,132.421 179.208,130.587 180,128.5C 182.989,125.345 186.156,122.345 189.5,119.5C 193.528,110.152 199.195,101.819 206.5,94.5C 207.333,92.8333 208.167,91.1667 209,89.5C 209.667,90.8333 210.333,90.8333 211,89.5C 211.943,85.9281 213.443,82.5948 215.5,79.5 Z"/></g>
<g><path style="opacity:1" fill="#edfaef" d="M 216.5,77.5 C 216.167,78.1667 215.833,78.8333 215.5,79.5C 213.443,82.5948 211.943,85.9281 211,89.5C 210.333,90.8333 209.667,90.8333 209,89.5C 208.167,91.1667 207.333,92.8333 206.5,94.5C 199.195,101.819 193.528,110.152 189.5,119.5C 186.156,122.345 182.989,125.345 180,128.5C 179.208,130.587 178.041,132.421 176.5,134C 173.238,134.268 170.738,135.768 169,138.5C 168.536,139.094 168.369,139.761 168.5,140.5C 168.167,140.5 167.833,140.5 167.5,140.5C 164.442,140.712 161.942,142.045 160,144.5C 157.219,144.105 155.053,142.772 153.5,140.5C 154.14,137.352 155.14,137.019 156.5,139.5C 158.87,137.312 159.537,134.812 158.5,132C 160.035,131.504 161.535,131.67 163,132.5C 167.903,131.827 168.403,130.327 164.5,128C 164.957,127.586 165.291,127.086 165.5,126.5C 164.389,125.389 163.722,124.055 163.5,122.5C 164.198,121.137 164.198,119.971 163.5,119C 165.122,117.705 166.455,116.205 167.5,114.5C 167.167,113.833 166.833,113.167 166.5,112.5C 163.025,117.141 158.859,118.807 154,117.5C 152.037,118.625 150.204,119.959 148.5,121.5C 147.264,120.754 145.93,120.421 144.5,120.5C 168.161,105.667 192.161,91.3332 216.5,77.5 Z"/></g>
<g><path style="opacity:1" fill="#86dde5" d="M 277.5,77.5 C 292.701,86.263 307.701,95.263 322.5,104.5C 320.589,104.009 318.589,104.009 316.5,104.5C 311.885,106.379 307.218,108.213 302.5,110C 303.696,110.654 303.696,111.154 302.5,111.5C 301.719,110.271 301.219,108.938 301,107.5C 299.719,107.619 298.552,107.119 297.5,106C 298.609,104.187 297.942,103.354 295.5,103.5C 295.649,102.448 295.483,101.448 295,100.5C 294.667,100.833 294.333,101.167 294,101.5C 292.109,97.0018 288.943,94.0018 284.5,92.5C 284.579,91.0695 284.246,89.7362 283.5,88.5C 285.401,87.7691 287.401,87.7691 289.5,88.5C 289.5,87.5 289.5,86.5 289.5,85.5C 286.67,85.3059 284.004,84.6392 281.5,83.5C 280.982,88.9858 280.315,94.3192 279.5,99.5C 278.965,92.1527 278.299,84.8194 277.5,77.5 Z"/></g>
<g><path style="opacity:1" fill="#d2f7f1" d="M 247.5,94.5 C 247.5,105.833 247.5,117.167 247.5,128.5C 237.925,124.379 228.592,119.713 219.5,114.5C 218.9,113.1 217.9,112.1 216.5,111.5C 225.147,106.463 233.814,101.296 242.5,96C 244.247,95.6481 245.914,95.1481 247.5,94.5 Z"/></g>
<g><path style="opacity:1" fill="#89e6e9" d="M 316.5,104.5 C 316.5,105.5 316.5,106.5 316.5,107.5C 315.325,107.281 314.325,107.614 313.5,108.5C 316.106,109.77 318.439,111.437 320.5,113.5C 324.746,122.711 329.746,131.378 335.5,139.5C 334.469,140.7 333.635,142.034 333,143.5C 326.882,138.349 319.716,134.349 311.5,131.5C 301.97,125.57 292.303,119.903 282.5,114.5C 280.781,113.978 279.448,112.978 278.5,111.5C 279.117,111.611 279.617,111.944 280,112.5C 280.629,108.129 280.463,103.796 279.5,99.5C 280.315,94.3192 280.982,88.9858 281.5,83.5C 284.004,84.6392 286.67,85.3059 289.5,85.5C 289.5,86.5 289.5,87.5 289.5,88.5C 287.401,87.7691 285.401,87.7691 283.5,88.5C 284.246,89.7362 284.579,91.0695 284.5,92.5C 288.943,94.0018 292.109,97.0018 294,101.5C 294.333,101.167 294.667,100.833 295,100.5C 295.483,101.448 295.649,102.448 295.5,103.5C 297.942,103.354 298.609,104.187 297.5,106C 298.552,107.119 299.719,107.619 301,107.5C 301.219,108.938 301.719,110.271 302.5,111.5C 303.696,111.154 303.696,110.654 302.5,110C 307.218,108.213 311.885,106.379 316.5,104.5 Z"/></g>
<g><path style="opacity:1" fill="#eafcf2" d="M 167.5,140.5 C 160.354,146.244 152.687,151.244 144.5,155.5C 125.457,156.81 107.124,156.81 89.5,155.5C 103.199,155.784 116.865,155.284 130.5,154C 129.72,152.927 129.887,151.76 131,150.5C 132.78,149.406 134.614,148.406 136.5,147.5C 135.968,145.259 134.635,143.759 132.5,143C 133.711,142.107 133.711,141.274 132.5,140.5C 129.238,139.72 126.071,139.387 123,139.5C 121.333,140.833 119.667,142.167 118,143.5C 116.941,143.37 116.108,142.87 115.5,142C 117.547,140.927 119.547,139.761 121.5,138.5C 122.386,137.675 122.719,136.675 122.5,135.5C 126.196,135.305 129.029,133.638 131,130.5C 131.414,130.957 131.914,131.291 132.5,131.5C 135.213,130.095 137.879,128.595 140.5,127C 139.272,125.51 139.272,124.01 140.5,122.5C 141.514,121.326 142.847,120.66 144.5,120.5C 145.93,120.421 147.264,120.754 148.5,121.5C 150.204,119.959 152.037,118.625 154,117.5C 158.859,118.807 163.025,117.141 166.5,112.5C 166.833,113.167 167.167,113.833 167.5,114.5C 166.455,116.205 165.122,117.705 163.5,119C 164.198,119.971 164.198,121.137 163.5,122.5C 163.722,124.055 164.389,125.389 165.5,126.5C 165.291,127.086 164.957,127.586 164.5,128C 168.403,130.327 167.903,131.827 163,132.5C 161.535,131.67 160.035,131.504 158.5,132C 159.537,134.812 158.87,137.312 156.5,139.5C 155.14,137.019 154.14,137.352 153.5,140.5C 155.053,142.772 157.219,144.105 160,144.5C 161.942,142.045 164.442,140.712 167.5,140.5 Z"/></g>
<g><path style="opacity:0.004" fill="#000000" d="M 361.5,119.5 C 362.833,120.167 362.833,120.167 361.5,119.5 Z"/></g>
<g><path style="opacity:1" fill="#5cc9d8" d="M 247.5,93.5 C 257.678,98.7516 267.345,104.752 276.5,111.5C 274.868,112.908 273.202,114.408 271.5,116C 263.939,119.627 256.606,123.627 249.5,128C 248.402,128.77 248.402,129.603 249.5,130.5C 248.504,130.586 247.671,130.252 247,129.5C 233.025,138.235 218.858,146.568 204.5,154.5C 203.888,151.696 203.888,148.696 204.5,145.5C 208.429,135.146 211.762,124.479 214.5,113.5C 214.435,113.062 214.601,112.728 215,112.5C 216.33,113.582 217.83,114.249 219.5,114.5C 228.592,119.713 237.925,124.379 247.5,128.5C 247.5,117.167 247.5,105.833 247.5,94.5C 247.5,94.1667 247.5,93.8333 247.5,93.5 Z"/></g>
<g><path style="opacity:1" fill="#77dce2" d="M 276.5,111.5 C 277.167,111.5 277.833,111.5 278.5,111.5C 279.448,112.978 280.781,113.978 282.5,114.5C 285.384,127.734 289.051,141.067 293.5,154.5C 293.376,155.107 293.043,155.44 292.5,155.5C 277.995,147.416 263.662,139.082 249.5,130.5C 248.402,129.603 248.402,128.77 249.5,128C 256.606,123.627 263.939,119.627 271.5,116C 273.202,114.408 274.868,112.908 276.5,111.5 Z"/></g>
<g><path style="opacity:1" fill="#0cb3c7" d="M 214.5,113.5 C 211.762,124.479 208.429,135.146 204.5,145.5C 202.543,146.143 200.209,146.809 197.5,147.5C 197.52,145.857 196.853,144.524 195.5,143.5C 195.623,140.956 195.623,138.456 195.5,136C 192.118,135.176 188.784,135.343 185.5,136.5C 188.833,137.167 190.833,139.167 191.5,142.5C 189.995,145.131 189.329,144.797 189.5,141.5C 187.5,141.5 185.5,141.5 183.5,141.5C 183.576,139.077 182.576,137.244 180.5,136C 183.155,133.019 186.488,131.353 190.5,131C 191.337,129.989 191.67,128.822 191.5,127.5C 196.084,123.53 201.084,120.03 206.5,117C 209.071,115.546 211.738,114.38 214.5,113.5 Z"/></g>
<g><path style="opacity:1" fill="#78e3ea" d="M 322.5,104.5 C 322.574,106.411 323.574,107.578 325.5,108C 323.385,108.424 322.552,109.591 323,111.5C 323.804,110.196 324.971,109.529 326.5,109.5C 330.614,111.057 334.614,112.89 338.5,115C 336.926,115.336 335.592,116.169 334.5,117.5C 336.574,118.53 338.74,120.197 341,122.5C 341.483,123.448 341.649,124.448 341.5,125.5C 340.178,125.67 339.011,125.337 338,124.5C 337.219,125.944 337.386,127.277 338.5,128.5C 342.548,129.122 346.048,130.788 349,133.5C 353.027,131.004 355.194,132.337 355.5,137.5C 354.167,137.5 352.833,137.5 351.5,137.5C 351.5,138.5 351.5,139.5 351.5,140.5C 355.244,139.872 358.911,138.872 362.5,137.5C 365.572,139.272 368.905,140.439 372.5,141C 373.687,142.019 374.687,143.186 375.5,144.5C 373.234,145.314 370.9,145.814 368.5,146C 367.446,147.388 367.28,148.888 368,150.5C 368.333,149.833 368.667,149.167 369,148.5C 371.056,148.961 373.389,149.628 376,150.5C 378.027,149.268 379.36,149.602 380,151.5C 381.184,149.346 382.35,149.68 383.5,152.5C 389.166,153.583 394.832,154.583 400.5,155.5C 401.478,155.023 402.311,154.357 403,153.5C 403.671,154.252 404.504,154.586 405.5,154.5C 406.263,155.268 407.263,155.768 408.5,156C 405.518,156.498 402.518,156.665 399.5,156.5C 383.833,156.5 368.167,156.5 352.5,156.5C 338.626,148.401 324.959,140.068 311.5,131.5C 319.716,134.349 326.882,138.349 333,143.5C 333.635,142.034 334.469,140.7 335.5,139.5C 329.746,131.378 324.746,122.711 320.5,113.5C 318.439,111.437 316.106,109.77 313.5,108.5C 314.325,107.614 315.325,107.281 316.5,107.5C 316.5,106.5 316.5,105.5 316.5,104.5C 318.589,104.009 320.589,104.009 322.5,104.5 Z"/></g>
<g><path style="opacity:0.004" fill="#000000" d="M 113.5,129.5 C 114.833,130.167 114.833,130.167 113.5,129.5 Z"/></g>
<g><path style="opacity:1" fill="#0db7c4" d="M 282.5,114.5 C 292.303,119.903 301.97,125.57 311.5,131.5C 324.959,140.068 338.626,148.401 352.5,156.5C 352.5,156.833 352.5,157.167 352.5,157.5C 350.901,157.232 349.568,157.566 348.5,158.5C 336.692,161.368 325.026,164.702 313.5,168.5C 305.989,164.915 298.989,160.582 292.5,155.5C 293.043,155.44 293.376,155.107 293.5,154.5C 289.051,141.067 285.384,127.734 282.5,114.5 Z"/></g>
<g><path style="opacity:0.004" fill="#000000" d="M 108.5,137.5 C 109.833,138.167 109.833,138.167 108.5,137.5 Z"/></g>
<g><path style="opacity:1" fill="#e9f8ef" d="M 140.5,122.5 C 139.272,124.01 139.272,125.51 140.5,127C 137.879,128.595 135.213,130.095 132.5,131.5C 131.914,131.291 131.414,130.957 131,130.5C 129.029,133.638 126.196,135.305 122.5,135.5C 122.719,136.675 122.386,137.675 121.5,138.5C 119.547,139.761 117.547,140.927 115.5,142C 116.108,142.87 116.941,143.37 118,143.5C 119.667,142.167 121.333,140.833 123,139.5C 126.071,139.387 129.238,139.72 132.5,140.5C 133.711,141.274 133.711,142.107 132.5,143C 134.635,143.759 135.968,145.259 136.5,147.5C 134.614,148.406 132.78,149.406 131,150.5C 129.887,151.76 129.72,152.927 130.5,154C 116.865,155.284 103.199,155.784 89.5,155.5C 90.9192,154.59 92.2525,152.923 93.5,150.5C 108.663,140.415 124.329,131.081 140.5,122.5 Z"/></g>
<g><path style="opacity:1" fill="#0bb9c5" d="M 191.5,127.5 C 191.67,128.822 191.337,129.989 190.5,131C 186.488,131.353 183.155,133.019 180.5,136C 182.576,137.244 183.576,139.077 183.5,141.5C 185.5,141.5 187.5,141.5 189.5,141.5C 189.329,144.797 189.995,145.131 191.5,142.5C 190.833,139.167 188.833,137.167 185.5,136.5C 188.784,135.343 192.118,135.176 195.5,136C 195.623,138.456 195.623,140.956 195.5,143.5C 196.853,144.524 197.52,145.857 197.5,147.5C 200.209,146.809 202.543,146.143 204.5,145.5C 203.888,148.696 203.888,151.696 204.5,154.5C 198.842,158.665 192.842,162.332 186.5,165.5C 182.233,165.797 178.066,165.464 174,164.5C 173.137,162.251 173.637,160.418 175.5,159C 168.854,156.433 169.188,154.933 176.5,154.5C 177.167,152.181 177.334,149.847 177,147.5C 175.248,151.382 172.415,152.382 168.5,150.5C 169.32,148.889 170.654,148.222 172.5,148.5C 172.733,142.711 175.233,141.045 180,143.5C 180.5,143.167 181,142.833 181.5,142.5C 179.478,140.391 177.478,138.391 175.5,136.5C 180.825,133.503 186.159,130.503 191.5,127.5 Z"/></g>
<g><path style="opacity:0.004" fill="#000000" d="M 424.5,143.5 C 425.833,144.167 425.833,144.167 424.5,143.5 Z"/></g>
<g><path style="opacity:0.004" fill="#000000" d="M 71.5,145.5 C 72.8333,146.167 72.8333,146.167 71.5,145.5 Z"/></g>
<g><path style="opacity:1" fill="#71d8e2" d="M 322.5,104.5 C 350.303,120.236 377.969,136.236 405.5,152.5C 405.5,153.167 405.5,153.833 405.5,154.5C 404.504,154.586 403.671,154.252 403,153.5C 402.311,154.357 401.478,155.023 400.5,155.5C 394.832,154.583 389.166,153.583 383.5,152.5C 382.35,149.68 381.184,149.346 380,151.5C 379.36,149.602 378.027,149.268 376,150.5C 373.389,149.628 371.056,148.961 369,148.5C 368.667,149.167 368.333,149.833 368,150.5C 367.28,148.888 367.446,147.388 368.5,146C 370.9,145.814 373.234,145.314 375.5,144.5C 374.687,143.186 373.687,142.019 372.5,141C 368.905,140.439 365.572,139.272 362.5,137.5C 358.911,138.872 355.244,139.872 351.5,140.5C 351.5,139.5 351.5,138.5 351.5,137.5C 352.833,137.5 354.167,137.5 355.5,137.5C 355.194,132.337 353.027,131.004 349,133.5C 346.048,130.788 342.548,129.122 338.5,128.5C 337.386,127.277 337.219,125.944 338,124.5C 339.011,125.337 340.178,125.67 341.5,125.5C 341.649,124.448 341.483,123.448 341,122.5C 338.74,120.197 336.574,118.53 334.5,117.5C 335.592,116.169 336.926,115.336 338.5,115C 334.614,112.89 330.614,111.057 326.5,109.5C 324.971,109.529 323.804,110.196 323,111.5C 322.552,109.591 323.385,108.424 325.5,108C 323.574,107.578 322.574,106.411 322.5,104.5 Z"/></g>
<g><path style="opacity:1" fill="#14b8c8" d="M 175.5,136.5 C 177.478,138.391 179.478,140.391 181.5,142.5C 181,142.833 180.5,143.167 180,143.5C 175.233,141.045 172.733,142.711 172.5,148.5C 170.654,148.222 169.32,148.889 168.5,150.5C 172.415,152.382 175.248,151.382 177,147.5C 177.334,149.847 177.167,152.181 176.5,154.5C 169.188,154.933 168.854,156.433 175.5,159C 173.637,160.418 173.137,162.251 174,164.5C 178.066,165.464 182.233,165.797 186.5,165.5C 186.027,166.906 185.027,167.573 183.5,167.5C 181.143,167.663 178.81,167.497 176.5,167C 165.347,163.115 154.014,159.948 142.5,157.5C 143.167,156.833 143.833,156.167 144.5,155.5C 152.687,151.244 160.354,146.244 167.5,140.5C 167.833,140.5 168.167,140.5 168.5,140.5C 170.833,139.167 173.167,137.833 175.5,136.5 Z"/></g>
<g><path style="opacity:1" fill="#2dd1df" d="M 352.5,157.5 C 352.5,157.167 352.5,156.833 352.5,156.5C 368.167,156.5 383.833,156.5 399.5,156.5C 399.369,157.376 399.702,158.043 400.5,158.5C 403.214,158.254 405.88,157.92 408.5,157.5C 409.5,157.833 410.5,158.167 411.5,158.5C 408.735,160.507 406.068,162.674 403.5,165C 397.742,166.743 392.409,169.409 387.5,173C 385.531,174.5 384.198,176.333 383.5,178.5C 383.869,176.007 383.203,175.34 381.5,176.5C 373.537,171.18 365.537,165.846 357.5,160.5C 355.999,159.248 354.332,158.248 352.5,157.5 Z"/></g>
<g><path style="opacity:1" fill="#046c96" d="M 142.5,157.5 C 154.014,159.948 165.347,163.115 176.5,167C 178.81,167.497 181.143,167.663 183.5,167.5C 174.535,173.655 165.202,179.321 155.5,184.5C 152.532,178.106 150.032,171.44 148,164.5C 146.424,161.819 144.591,159.486 142.5,157.5 Z"/></g>
<g><path style="opacity:1" fill="#c0f2ed" d="M 93.5,150.5 C 92.2525,152.923 90.9192,154.59 89.5,155.5C 107.124,156.81 125.457,156.81 144.5,155.5C 143.833,156.167 143.167,156.833 142.5,157.5C 137.433,161.229 132.099,164.562 126.5,167.5C 122.052,168.542 118.052,170.542 114.5,173.5C 113.571,174.689 113.238,176.022 113.5,177.5C 110.203,174.846 106.537,172.679 102.5,171C 100.787,169.622 99.4533,167.955 98.5,166C 92.9045,162.875 87.2378,160.041 81.5,157.5C 85.1038,154.691 89.1038,152.357 93.5,150.5 Z"/></g>
<g><path style="opacity:1" fill="#055688" d="M 348.5,158.5 C 350.103,158.312 351.437,158.812 352.5,160C 348.732,163.42 346.566,167.587 346,172.5C 342.645,176.12 341.478,180.12 342.5,184.5C 342.5,184.833 342.5,185.167 342.5,185.5C 332.332,180.587 322.666,174.92 313.5,168.5C 325.026,164.702 336.692,161.368 348.5,158.5 Z"/></g>
<g><path style="opacity:1" fill="#e6fbf1" d="M 81.5,157.5 C 87.2378,160.041 92.9045,162.875 98.5,166C 99.4533,167.955 100.787,169.622 102.5,171C 106.537,172.679 110.203,174.846 113.5,177.5C 114.833,192.833 114.833,208.167 113.5,223.5C 109.151,215.465 104.817,207.465 100.5,199.5C 95.3777,187.254 89.211,175.588 82,164.5C 81.5034,162.19 81.3367,159.857 81.5,157.5 Z"/></g>
<g><path style="opacity:1" fill="#0898b5" d="M 142.5,157.5 C 144.591,159.486 146.424,161.819 148,164.5C 150.032,171.44 152.532,178.106 155.5,184.5C 150.666,187.752 145.666,190.752 140.5,193.5C 138.837,191.467 136.837,189.634 134.5,188C 128.05,184.027 121.55,180.194 115,176.5C 114.312,175.668 114.479,175.002 115.5,174.5C 119.401,172.392 123.067,170.059 126.5,167.5C 132.099,164.562 137.433,161.229 142.5,157.5 Z"/></g>
<g><path style="opacity:1" fill="#94e3e8" d="M 245.5,160.5 C 245.735,159.903 246.235,159.57 247,159.5C 257.796,165.475 268.296,171.809 278.5,178.5C 275.915,178.432 273.582,177.932 271.5,177C 274.044,178.775 274.044,180.608 271.5,182.5C 271.833,182.833 272.167,183.167 272.5,183.5C 274.179,181.896 276.179,181.229 278.5,181.5C 278.5,182.5 278.5,183.5 278.5,184.5C 275.976,184.429 273.976,185.429 272.5,187.5C 271.481,186.313 270.314,185.313 269,184.5C 267.814,186.677 265.981,187.677 263.5,187.5C 260.497,186.161 257.497,184.828 254.5,183.5C 252.365,181.929 250.032,180.596 247.5,179.5C 248.123,172.745 247.456,166.412 245.5,160.5 Z"/></g>
<g><path style="opacity:1" fill="#0a82a0" d="M 357.5,160.5 C 365.537,165.846 373.537,171.18 381.5,176.5C 372.505,180.643 363.838,185.476 355.5,191C 354.316,192.145 354.316,193.312 355.5,194.5C 355.167,194.5 354.833,194.5 354.5,194.5C 350.538,191.512 346.538,188.512 342.5,185.5C 342.5,185.167 342.5,184.833 342.5,184.5C 345.746,184.865 348.412,183.865 350.5,181.5C 351.754,183.259 351.421,184.759 349.5,186C 352.189,187.531 354.522,186.864 356.5,184C 359.974,183.699 363.308,182.866 366.5,181.5C 367.262,180.372 367.929,179.205 368.5,178C 370.779,177.527 372.779,176.527 374.5,175C 372.037,171.687 368.37,169.187 363.5,167.5C 361.338,165.14 359.338,162.807 357.5,160.5 Z"/></g>
<g><path style="opacity:1" fill="#017ba3" d="M 348.5,158.5 C 349.568,157.566 350.901,157.232 352.5,157.5C 354.332,158.248 355.999,159.248 357.5,160.5C 359.338,162.807 361.338,165.14 363.5,167.5C 368.37,169.187 372.037,171.687 374.5,175C 372.779,176.527 370.779,177.527 368.5,178C 367.929,179.205 367.262,180.372 366.5,181.5C 363.308,182.866 359.974,183.699 356.5,184C 354.522,186.864 352.189,187.531 349.5,186C 351.421,184.759 351.754,183.259 350.5,181.5C 348.412,183.865 345.746,184.865 342.5,184.5C 341.478,180.12 342.645,176.12 346,172.5C 346.566,167.587 348.732,163.42 352.5,160C 351.437,158.812 350.103,158.312 348.5,158.5 Z"/></g>
<g><path style="opacity:1" fill="#e3f6ee" d="M 245.5,160.5 C 247.456,166.412 248.123,172.745 247.5,179.5C 246.833,179.833 246.167,180.167 245.5,180.5C 230.272,188.61 215.272,196.943 200.5,205.5C 198.628,204.489 196.628,203.655 194.5,203C 190.78,196.902 187.614,197.069 185,203.5C 183.927,202.72 182.76,202.887 181.5,204C 179.293,206.705 176.626,208.871 173.5,210.5C 172.354,209.855 171.354,209.022 170.5,208C 169.251,207.26 168.251,207.427 167.5,208.5C 166.833,208.5 166.167,208.5 165.5,208.5C 191.879,192.142 218.546,176.142 245.5,160.5 Z"/></g>
<g><path style="opacity:1" fill="#036da4" d="M 413.5,157.5 C 414.482,160.962 414.815,164.629 414.5,168.5C 414.164,194.683 413.164,220.683 411.5,246.5C 409.537,245.18 407.537,243.846 405.5,242.5C 398.587,238.641 391.587,234.641 384.5,230.5C 384.017,228.13 382.851,227.463 381,228.5C 380.5,243.163 380.333,257.83 380.5,272.5C 380.5,275.167 380.5,277.833 380.5,280.5C 380.167,280.5 379.833,280.5 379.5,280.5C 379.181,262.423 379.514,244.423 380.5,226.5C 380.5,225.833 380.5,225.167 380.5,224.5C 391.162,205.848 401.328,186.848 411,167.5C 412.727,164.382 413.561,161.049 413.5,157.5 Z"/></g>
<g><path style="opacity:0.004" fill="#000000" d="M 463.5,182.5 C 464.833,183.167 464.833,183.167 463.5,182.5 Z"/></g>
<g><path style="opacity:1" fill="#23c6d8" d="M 405.5,152.5 C 408.203,154.181 410.869,155.847 413.5,157.5C 413.561,161.049 412.727,164.382 411,167.5C 401.328,186.848 391.162,205.848 380.5,224.5C 380.724,222.213 381.391,220.047 382.5,218C 381.326,204.817 381.659,191.65 383.5,178.5C 384.198,176.333 385.531,174.5 387.5,173C 392.409,169.409 397.742,166.743 403.5,165C 406.068,162.674 408.735,160.507 411.5,158.5C 410.5,158.167 409.5,157.833 408.5,157.5C 405.88,157.92 403.214,158.254 400.5,158.5C 399.702,158.043 399.369,157.376 399.5,156.5C 402.518,156.665 405.518,156.498 408.5,156C 407.263,155.768 406.263,155.268 405.5,154.5C 405.5,153.833 405.5,153.167 405.5,152.5 Z"/></g>
<g><path style="opacity:1" fill="#61d7e1" d="M 383.5,178.5 C 381.659,191.65 381.326,204.817 382.5,218C 381.391,220.047 380.724,222.213 380.5,224.5C 380.5,225.167 380.5,225.833 380.5,226.5C 379.833,226.5 379.167,226.5 378.5,226.5C 375.305,221.431 371.638,216.765 367.5,212.5C 367.5,211.833 367.167,211.5 366.5,211.5C 363.254,205.582 359.587,199.915 355.5,194.5C 354.316,193.312 354.316,192.145 355.5,191C 363.838,185.476 372.505,180.643 381.5,176.5C 383.203,175.34 383.869,176.007 383.5,178.5 Z"/></g>
<g><path style="opacity:1" fill="#58dde4" d="M 89.5,199.5 C 89.0845,205.952 89.5845,212.285 91,218.5C 91.1858,216.1 91.6858,213.766 92.5,211.5C 93.4145,215.815 94.2479,220.148 95,224.5C 98.1772,220.009 101.177,215.342 104,210.5C 105.718,213.056 105.718,215.722 104,218.5C 101.632,220.594 99.7985,223.094 98.5,226C 99.5521,227.119 100.719,227.619 102,227.5C 103.402,225.027 104.902,225.027 106.5,227.5C 106.911,226.738 107.077,225.738 107,224.5C 108.758,225.469 109.258,226.636 108.5,228C 110.381,227.904 112.047,228.071 113.5,228.5C 112.5,228.833 111.833,229.5 111.5,230.5C 101.669,235.914 92.0023,241.581 82.5,247.5C 83.9379,243.255 85.6046,239.088 87.5,235C 86.2272,232.484 86.2272,229.984 87.5,227.5C 86.1023,223.061 85.1023,218.561 84.5,214C 85.428,213.612 86.0946,212.945 86.5,212C 84.8096,206.763 85.3096,201.597 88,196.5C 89.0386,197.244 89.5386,198.244 89.5,199.5 Z"/></g>
<g><path style="opacity:1" fill="#67d8e0" d="M 81.5,157.5 C 81.3367,159.857 81.5034,162.19 82,164.5C 89.211,175.588 95.3777,187.254 100.5,199.5C 99.5,199.5 98.5,199.5 97.5,199.5C 97.5277,195.516 95.861,194.516 92.5,196.5C 92.6567,195.127 92.49,193.793 92,192.5C 92.0302,195.361 91.1969,197.695 89.5,199.5C 89.5386,198.244 89.0386,197.244 88,196.5C 85.3096,201.597 84.8096,206.763 86.5,212C 86.0946,212.945 85.428,213.612 84.5,214C 85.1023,218.561 86.1023,223.061 87.5,227.5C 86.2272,229.984 86.2272,232.484 87.5,235C 85.6046,239.088 83.9379,243.255 82.5,247.5C 82.1667,247.5 81.8333,247.5 81.5,247.5C 80.502,219.338 80.1687,191.005 80.5,162.5C 80.2155,160.585 80.5489,158.919 81.5,157.5 Z"/></g>
<g><path style="opacity:0.004" fill="#000000" d="M 460.5,197.5 C 461.833,198.167 461.833,198.167 460.5,197.5 Z"/></g>
<g><path style="opacity:1" fill="#07a8d3" d="M 250.5,185.5 C 258.258,195.606 265.258,206.273 271.5,217.5C 268.159,218.005 264.826,218.172 261.5,218C 259.137,217.411 258.137,215.911 258.5,213.5C 261.518,213.506 264.184,214.506 266.5,216.5C 267.429,215.311 267.762,213.978 267.5,212.5C 266.5,212.5 265.5,212.5 264.5,212.5C 264.5,211.5 264.5,210.5 264.5,209.5C 261.813,209.336 259.146,209.503 256.5,210C 256.833,210.333 257.167,210.667 257.5,211C 256.072,212.916 255.072,215.083 254.5,217.5C 253.063,220.044 251.563,220.044 250,217.5C 250.053,220.675 249.22,223.342 247.5,225.5C 247.309,212.806 247.809,200.139 249,187.5C 249.278,186.584 249.778,185.918 250.5,185.5 Z"/></g>
<g><path style="opacity:1" fill="#83e1e7" d="M 278.5,178.5 C 285.005,181.917 291.338,185.584 297.5,189.5C 298.203,191.716 299.536,193.549 301.5,195C 303.663,195.245 305.33,196.245 306.5,198C 302.805,200.51 299.138,203.01 295.5,205.5C 284.51,200.007 273.843,194.007 263.5,187.5C 265.981,187.677 267.814,186.677 269,184.5C 270.314,185.313 271.481,186.313 272.5,187.5C 273.976,185.429 275.976,184.429 278.5,184.5C 278.5,183.5 278.5,182.5 278.5,181.5C 276.179,181.229 274.179,181.896 272.5,183.5C 272.167,183.167 271.833,182.833 271.5,182.5C 274.044,180.608 274.044,178.775 271.5,177C 273.582,177.932 275.915,178.432 278.5,178.5 Z"/></g>
<g><path style="opacity:1" fill="#2ac8e3" d="M 245.5,180.5 C 239.117,192.251 231.951,203.584 224,214.5C 223.51,215.793 223.343,217.127 223.5,218.5C 216.85,214.862 210.184,211.195 203.5,207.5C 202.5,206.833 201.5,206.167 200.5,205.5C 215.272,196.943 230.272,188.61 245.5,180.5 Z"/></g>
<g><path style="opacity:0.004" fill="#000000" d="M 19.5,202.5 C 20.8333,203.167 20.8333,203.167 19.5,202.5 Z"/></g>
<g><path style="opacity:1" fill="#117baa" d="M 254.5,183.5 C 257.497,184.828 260.497,186.161 263.5,187.5C 273.843,194.007 284.51,200.007 295.5,205.5C 288.135,209.514 280.802,213.514 273.5,217.5C 272.833,217.5 272.167,217.5 271.5,217.5C 265.258,206.273 258.258,195.606 250.5,185.5C 249.517,184.15 248.184,183.15 246.5,182.5C 247,182.167 247.5,181.833 248,181.5C 250.047,182.609 252.213,183.276 254.5,183.5 Z"/></g>
<g><path style="opacity:1" fill="#90e4e8" d="M 126.5,167.5 C 123.067,170.059 119.401,172.392 115.5,174.5C 114.479,175.002 114.312,175.668 115,176.5C 121.55,180.194 128.05,184.027 134.5,188C 136.837,189.634 138.837,191.467 140.5,193.5C 132.757,204.639 124.757,215.639 116.5,226.5C 116.167,226.5 115.833,226.5 115.5,226.5C 114.094,226.027 113.427,225.027 113.5,223.5C 114.833,208.167 114.833,192.833 113.5,177.5C 113.238,176.022 113.571,174.689 114.5,173.5C 118.052,170.542 122.052,168.542 126.5,167.5 Z"/></g>
<g><path style="opacity:1" fill="#58d8e0" d="M 100.5,199.5 C 104.817,207.465 109.151,215.465 113.5,223.5C 113.427,225.027 114.094,226.027 115.5,226.5C 115.167,227.167 114.833,227.833 114.5,228.5C 114.167,228.5 113.833,228.5 113.5,228.5C 112.047,228.071 110.381,227.904 108.5,228C 109.258,226.636 108.758,225.469 107,224.5C 107.077,225.738 106.911,226.738 106.5,227.5C 104.902,225.027 103.402,225.027 102,227.5C 100.719,227.619 99.5521,227.119 98.5,226C 99.7985,223.094 101.632,220.594 104,218.5C 105.718,215.722 105.718,213.056 104,210.5C 101.177,215.342 98.1772,220.009 95,224.5C 94.2479,220.148 93.4145,215.815 92.5,211.5C 91.6858,213.766 91.1858,216.1 91,218.5C 89.5845,212.285 89.0845,205.952 89.5,199.5C 91.1969,197.695 92.0302,195.361 92,192.5C 92.49,193.793 92.6567,195.127 92.5,196.5C 95.861,194.516 97.5277,195.516 97.5,199.5C 98.5,199.5 99.5,199.5 100.5,199.5 Z"/></g>
<g><path style="opacity:0.004" fill="#000000" d="M 37.5,208.5 C 38.8333,209.167 38.8333,209.167 37.5,208.5 Z"/></g>
<g><path style="opacity:1" fill="#f9fdf2" d="M 200.5,205.5 C 201.5,206.167 202.5,206.833 203.5,207.5C 206.522,210.826 210.188,213.493 214.5,215.5C 215.167,216.833 215.833,218.167 216.5,219.5C 220.887,218.523 224.553,219.856 227.5,223.5C 227.833,223.833 228.167,224.167 228.5,224.5C 227,224.833 225.5,225.167 224,225.5C 207.326,222.54 190.826,218.707 174.5,214C 171.785,212.423 169.451,210.59 167.5,208.5C 168.251,207.427 169.251,207.26 170.5,208C 171.354,209.022 172.354,209.855 173.5,210.5C 176.626,208.871 179.293,206.705 181.5,204C 182.76,202.887 183.927,202.72 185,203.5C 187.614,197.069 190.78,196.902 194.5,203C 196.628,203.655 198.628,204.489 200.5,205.5 Z"/></g>
<g><path style="opacity:1" fill="#0992c2" d="M 247.5,179.5 C 250.032,180.596 252.365,181.929 254.5,183.5C 252.213,183.276 250.047,182.609 248,181.5C 247.5,181.833 247,182.167 246.5,182.5C 248.184,183.15 249.517,184.15 250.5,185.5C 249.778,185.918 249.278,186.584 249,187.5C 247.809,200.139 247.309,212.806 247.5,225.5C 249.138,227.955 248.805,229.955 246.5,231.5C 246.167,231.5 245.833,231.5 245.5,231.5C 238.167,227.167 230.833,222.833 223.5,218.5C 223.343,217.127 223.51,215.793 224,214.5C 231.951,203.584 239.117,192.251 245.5,180.5C 246.167,180.167 246.833,179.833 247.5,179.5 Z"/></g>
<g><path style="opacity:1" fill="#06265a" d="M 366.5,211.5 C 367.167,211.5 367.5,211.833 367.5,212.5C 369.088,217.637 371.422,222.303 374.5,226.5C 368.477,226.502 362.477,226.835 356.5,227.5C 356.858,220.328 357.358,212.995 358,205.5C 359.605,209.276 362.438,211.276 366.5,211.5 Z"/></g>
<g><path style="opacity:1" fill="#07204d" d="M 140.5,193.5 C 140.832,231.337 140.498,269.004 139.5,306.5C 139.831,279.995 139.498,253.661 138.5,227.5C 132.151,227.179 125.818,227.013 119.5,227C 118.748,227.671 118.414,228.504 118.5,229.5C 117.094,229.027 116.427,228.027 116.5,226.5C 124.757,215.639 132.757,204.639 140.5,193.5 Z"/></g>
<g><path style="opacity:1" fill="#1eafcf" d="M 271.5,217.5 C 272.167,217.5 272.833,217.5 273.5,217.5C 265.568,222.138 257.568,226.805 249.5,231.5C 248.348,232.625 247.348,232.625 246.5,231.5C 248.805,229.955 249.138,227.955 247.5,225.5C 249.22,223.342 250.053,220.675 250,217.5C 251.563,220.044 253.063,220.044 254.5,217.5C 255.072,215.083 256.072,212.916 257.5,211C 257.167,210.667 256.833,210.333 256.5,210C 259.146,209.503 261.813,209.336 264.5,209.5C 264.5,210.5 264.5,211.5 264.5,212.5C 265.5,212.5 266.5,212.5 267.5,212.5C 267.762,213.978 267.429,215.311 266.5,216.5C 264.184,214.506 261.518,213.506 258.5,213.5C 258.137,215.911 259.137,217.411 261.5,218C 264.826,218.172 268.159,218.005 271.5,217.5 Z"/></g>
<g><path style="opacity:1" fill="#bef1ef" d="M 297.5,189.5 C 308.636,195.569 319.636,201.902 330.5,208.5C 330.737,209.791 330.404,210.791 329.5,211.5C 302.958,217.719 276.625,224.719 250.5,232.5C 249.893,232.376 249.56,232.043 249.5,231.5C 257.568,226.805 265.568,222.138 273.5,217.5C 280.802,213.514 288.135,209.514 295.5,205.5C 299.138,203.01 302.805,200.51 306.5,198C 305.33,196.245 303.663,195.245 301.5,195C 299.536,193.549 298.203,191.716 297.5,189.5 Z"/></g>
<g><path style="opacity:1" fill="#d3f6f0" d="M 203.5,207.5 C 210.184,211.195 216.85,214.862 223.5,218.5C 230.833,222.833 238.167,227.167 245.5,231.5C 245.5,232.167 245.5,232.833 245.5,233.5C 237.776,237.53 229.776,241.197 221.5,244.5C 220.833,244.833 220.167,245.167 219.5,245.5C 202.888,235.522 186.555,225.022 170.5,214C 169.552,213.517 168.552,213.351 167.5,213.5C 166.833,212.167 165.833,211.167 164.5,210.5C 164.5,210.167 164.5,209.833 164.5,209.5C 164.5,208.833 164.833,208.5 165.5,208.5C 166.167,208.5 166.833,208.5 167.5,208.5C 169.451,210.59 171.785,212.423 174.5,214C 190.826,218.707 207.326,222.54 224,225.5C 225.5,225.167 227,224.833 228.5,224.5C 228.167,224.167 227.833,223.833 227.5,223.5C 224.553,219.856 220.887,218.523 216.5,219.5C 215.833,218.167 215.167,216.833 214.5,215.5C 210.188,213.493 206.522,210.826 203.5,207.5 Z"/></g>
<g><path style="opacity:1" fill="#67d8e6" d="M 329.5,211.5 C 329.5,211.833 329.5,212.167 329.5,212.5C 316.959,219.385 304.959,227.052 293.5,235.5C 287.473,238.845 281.473,242.179 275.5,245.5C 266.208,241.295 256.874,237.295 247.5,233.5C 246.833,233.5 246.167,233.5 245.5,233.5C 245.5,232.833 245.5,232.167 245.5,231.5C 245.833,231.5 246.167,231.5 246.5,231.5C 247.348,232.625 248.348,232.625 249.5,231.5C 249.56,232.043 249.893,232.376 250.5,232.5C 276.625,224.719 302.958,217.719 329.5,211.5 Z"/></g>
<g><path style="opacity:1" fill="#025692" d="M 384.5,230.5 C 385.593,232.728 386.593,235.061 387.5,237.5C 389.123,236.509 390.123,237.176 390.5,239.5C 388.833,242.971 389.833,244.804 393.5,245C 392.74,243.559 392.074,242.059 391.5,240.5C 392.325,239.614 393.325,239.281 394.5,239.5C 394.833,242.833 395.167,246.167 395.5,249.5C 396.5,249.5 397.5,249.5 398.5,249.5C 398.72,253.953 397.72,257.953 395.5,261.5C 391.857,261.478 388.524,262.478 385.5,264.5C 384.289,265.72 384.289,266.887 385.5,268C 383.683,269.8 382.516,271.966 382,274.5C 381.722,273.584 381.222,272.918 380.5,272.5C 380.333,257.83 380.5,243.163 381,228.5C 382.851,227.463 384.017,228.13 384.5,230.5 Z"/></g>
<g><path style="opacity:1" fill="#06447c" d="M 331.5,212.5 C 331.5,241.167 331.5,269.833 331.5,298.5C 330.833,298.5 330.167,298.5 329.5,298.5C 329.405,295.728 328.071,293.728 325.5,292.5C 322.354,284.183 318.187,276.516 313,269.5C 312.027,267.608 311.36,265.608 311,263.5C 310.184,262.177 309.017,261.511 307.5,261.5C 313.989,247.854 320.989,234.521 328.5,221.5C 329.384,218.344 330.384,215.344 331.5,212.5 Z"/></g>
<g><path style="opacity:1" fill="#02548c" d="M 384.5,230.5 C 391.587,234.641 398.587,238.641 405.5,242.5C 404.292,241.766 402.959,241.433 401.5,241.5C 401.552,244.219 402.218,246.719 403.5,249C 403,249.5 402.5,250 402,250.5C 401.5,259.494 401.334,268.494 401.5,277.5C 400.71,278.609 400.21,279.942 400,281.5C 398.209,279.971 396.542,278.304 395,276.5C 391.031,279.493 386.698,280.16 382,278.5C 381.722,279.416 381.222,280.082 380.5,280.5C 380.5,277.833 380.5,275.167 380.5,272.5C 381.222,272.918 381.722,273.584 382,274.5C 382.516,271.966 383.683,269.8 385.5,268C 384.289,266.887 384.289,265.72 385.5,264.5C 388.524,262.478 391.857,261.478 395.5,261.5C 397.72,257.953 398.72,253.953 398.5,249.5C 397.5,249.5 396.5,249.5 395.5,249.5C 395.167,246.167 394.833,242.833 394.5,239.5C 393.325,239.281 392.325,239.614 391.5,240.5C 392.074,242.059 392.74,243.559 393.5,245C 389.833,244.804 388.833,242.971 390.5,239.5C 390.123,237.176 389.123,236.509 387.5,237.5C 386.593,235.061 385.593,232.728 384.5,230.5 Z"/></g>
<g><path style="opacity:1" fill="#0e96c1" d="M 378.5,226.5 C 379.167,226.5 379.833,226.5 380.5,226.5C 379.514,244.423 379.181,262.423 379.5,280.5C 379.167,280.5 378.833,280.5 378.5,280.5C 372.526,271.518 366.526,262.518 360.5,253.5C 365.123,244.575 370.956,236.575 378,229.5C 378.483,228.552 378.649,227.552 378.5,226.5 Z"/></g>
<g><path style="opacity:1" fill="#8ae2e6" d="M 167.5,213.5 C 168.552,213.351 169.552,213.517 170.5,214C 186.555,225.022 202.888,235.522 219.5,245.5C 216.923,250.982 213.59,255.982 209.5,260.5C 195.608,244.93 181.608,229.263 167.5,213.5 Z"/></g>
<g><path style="opacity:1" fill="#0f89bd" d="M 329.5,212.5 C 317.158,225.509 305.158,238.843 293.5,252.5C 293.48,250.857 294.147,249.524 295.5,248.5C 295.167,248.167 294.833,247.833 294.5,247.5C 291.634,248.795 288.801,248.795 286,247.5C 283.1,250.167 281.266,249.5 280.5,245.5C 284.901,243.59 288.901,241.09 292.5,238C 293.252,237.329 293.586,236.496 293.5,235.5C 304.959,227.052 316.959,219.385 329.5,212.5 Z"/></g>
<g><path style="opacity:1" fill="#5dd4de" d="M 164.5,210.5 C 165.833,211.167 166.833,212.167 167.5,213.5C 181.608,229.263 195.608,244.93 209.5,260.5C 208.569,262.033 207.902,263.7 207.5,265.5C 209.388,267.381 211.221,269.381 213,271.5C 216.601,270.18 220.101,270.18 223.5,271.5C 222.035,272.737 220.368,273.737 218.5,274.5C 212.265,277.118 205.932,279.452 199.5,281.5C 189.137,262.104 178.804,242.77 168.5,223.5C 166.295,219.426 164.962,215.093 164.5,210.5 Z"/></g>
<g><path style="opacity:1" fill="#21bee0" d="M 247.5,233.5 C 256.874,237.295 266.208,241.295 275.5,245.5C 274.426,246.885 273.093,248.051 271.5,249C 263.599,253.45 255.599,257.616 247.5,261.5C 247.5,252.167 247.5,242.833 247.5,233.5 Z"/></g>
<g><path style="opacity:1" fill="#057dae" d="M 168.5,223.5 C 178.804,242.77 189.137,262.104 199.5,281.5C 199.5,281.833 199.5,282.167 199.5,282.5C 198.833,282.5 198.167,282.5 197.5,282.5C 195.987,280.484 195.153,278.151 195,275.5C 194,274.833 193,274.167 192,273.5C 191.209,269.281 189.375,265.614 186.5,262.5C 179.425,273.643 172.592,284.976 166,296.5C 165.333,277.5 165.333,258.5 166,239.5C 165.878,233.74 166.711,228.407 168.5,223.5 Z"/></g>
<g><path style="opacity:0.004" fill="#000000" d="M 45.5,250.5 C 46.8333,251.167 46.8333,251.167 45.5,250.5 Z"/></g>
<g><path style="opacity:1" fill="#058cb2" d="M 115.5,226.5 C 115.833,226.5 116.167,226.5 116.5,226.5C 116.427,228.027 117.094,229.027 118.5,229.5C 123.813,237.443 129.146,245.443 134.5,253.5C 128.781,262.202 123.114,270.869 117.5,279.5C 117.566,281.181 117.066,282.848 116,284.5C 115.167,297.513 115.334,310.513 116.5,323.5C 121.029,320.312 126.029,317.979 131.5,316.5C 126.521,319.993 121.188,322.993 115.5,325.5C 114.505,319.872 114.171,314.206 114.5,308.5C 114.5,300.5 114.5,292.5 114.5,284.5C 114.368,265.925 114.368,247.258 114.5,228.5C 114.833,227.833 115.167,227.167 115.5,226.5 Z"/></g>
<g><path style="opacity:1" fill="#03528c" d="M 405.5,242.5 C 407.537,243.846 409.537,245.18 411.5,246.5C 412.525,259.817 412.691,273.151 412,286.5C 411.333,287.167 410.667,287.833 410,288.5C 409.829,293.533 409.329,298.533 408.5,303.5C 407.473,302.209 406.473,302.209 405.5,303.5C 405.5,298.5 405.5,293.5 405.5,288.5C 404.5,288.5 403.5,288.5 402.5,288.5C 402.058,284.846 401.724,281.179 401.5,277.5C 401.334,268.494 401.5,259.494 402,250.5C 402.5,250 403,249.5 403.5,249C 402.218,246.719 401.552,244.219 401.5,241.5C 402.959,241.433 404.292,241.766 405.5,242.5 Z"/></g>
<g><path style="opacity:1" fill="#094076" d="M 367.5,212.5 C 371.638,216.765 375.305,221.431 378.5,226.5C 378.649,227.552 378.483,228.552 378,229.5C 370.956,236.575 365.123,244.575 360.5,253.5C 366.526,262.518 372.526,271.518 378.5,280.5C 378.5,281.167 378.833,281.5 379.5,281.5C 379.217,282.289 378.717,282.956 378,283.5C 376.98,282.109 376.147,280.609 375.5,279C 369.889,277.731 364.222,276.898 358.5,276.5C 358.189,275.522 357.522,274.855 356.5,274.5C 355.173,258.672 355.173,243.005 356.5,227.5C 362.477,226.835 368.477,226.502 374.5,226.5C 371.422,222.303 369.088,217.637 367.5,212.5 Z"/></g>
<g><path style="opacity:0.004" fill="#000000" d="M 69.5,254.5 C 70.8333,255.167 70.8333,255.167 69.5,254.5 Z"/></g>
<g><path style="opacity:0.004" fill="#000000" d="M 432.5,254.5 C 433.833,255.167 433.833,255.167 432.5,254.5 Z"/></g>
<g><path style="opacity:1" fill="#055994" d="M 330.5,208.5 C 331.434,209.568 331.768,210.901 331.5,212.5C 330.384,215.344 329.384,218.344 328.5,221.5C 320.989,234.521 313.989,247.854 307.5,261.5C 304.852,265.462 302.685,269.796 301,274.5C 299.241,277.069 297.407,279.403 295.5,281.5C 294.025,274.079 291.358,267.079 287.5,260.5C 289.524,257.815 291.524,255.148 293.5,252.5C 305.158,238.843 317.158,225.509 329.5,212.5C 329.5,212.167 329.5,211.833 329.5,211.5C 330.404,210.791 330.737,209.791 330.5,208.5 Z"/></g>
<g><path style="opacity:1" fill="#06376f" d="M 138.5,227.5 C 138.046,243.192 138.046,258.859 138.5,274.5C 131.49,276.058 124.49,277.725 117.5,279.5C 123.114,270.869 128.781,262.202 134.5,253.5C 129.146,245.443 123.813,237.443 118.5,229.5C 118.414,228.504 118.748,227.671 119.5,227C 125.818,227.013 132.151,227.179 138.5,227.5 Z"/></g>
<g><path style="opacity:1" fill="#3dc5da" d="M 221.5,244.5 C 221.511,246.017 222.177,247.184 223.5,248C 231.167,252.5 238.833,257 246.5,261.5C 239.182,265.66 231.515,268.993 223.5,271.5C 220.101,270.18 216.601,270.18 213,271.5C 211.221,269.381 209.388,267.381 207.5,265.5C 207.902,263.7 208.569,262.033 209.5,260.5C 213.59,255.982 216.923,250.982 219.5,245.5C 220.167,245.167 220.833,244.833 221.5,244.5 Z"/></g>
<g><path style="opacity:1" fill="#0ea1b9" d="M 80.5,162.5 C 80.1687,191.005 80.502,219.338 81.5,247.5C 81.3359,250.187 81.5026,252.854 82,255.5C 84.4486,256.992 84.9486,259.159 83.5,262C 83.7896,265.118 84.4563,268.118 85.5,271C 84.2378,279.619 84.2378,288.119 85.5,296.5C 86.5529,295.562 87.2196,294.395 87.5,293C 86.1923,288.154 86.1923,283.32 87.5,278.5C 87.8333,278.167 88.1667,277.833 88.5,277.5C 89.4343,282.173 90.9343,282.506 93,278.5C 93.3471,282.116 94.5138,282.783 96.5,280.5C 100.406,282.415 103.406,281.582 105.5,278C 104.843,273.532 104.677,268.699 105,263.5C 106.281,263.381 107.448,263.881 108.5,265C 107.643,265.689 106.977,266.522 106.5,267.5C 107.528,269.361 109.028,270.695 111,271.5C 111.216,269.616 111.883,267.949 113,266.5C 113.112,257.054 113.112,247.721 113,238.5C 111.34,238.324 109.674,238.991 108,240.5C 106.356,243.638 104.523,246.638 102.5,249.5C 99.4222,247.87 96.0889,247.037 92.5,247C 94.6785,246.558 95.3452,245.558 94.5,244C 96.155,241.502 98.4883,240.002 101.5,239.5C 102.277,237.461 103.443,236.795 105,237.5C 108.074,235.929 110.24,233.596 111.5,230.5C 111.833,229.5 112.5,228.833 113.5,228.5C 113.833,228.5 114.167,228.5 114.5,228.5C 114.368,247.258 114.368,265.925 114.5,284.5C 103.597,303.967 92.9306,323.634 82.5,343.5C 81.8333,343.5 81.1667,343.5 80.5,343.5C 79.1693,283.069 79.1693,222.736 80.5,162.5 Z"/></g>
<g><path style="opacity:1" fill="#04b5ca" d="M 111.5,230.5 C 110.24,233.596 108.074,235.929 105,237.5C 103.443,236.795 102.277,237.461 101.5,239.5C 98.4883,240.002 96.155,241.502 94.5,244C 95.3452,245.558 94.6785,246.558 92.5,247C 96.0889,247.037 99.4222,247.87 102.5,249.5C 104.523,246.638 106.356,243.638 108,240.5C 109.674,238.991 111.34,238.324 113,238.5C 113.112,247.721 113.112,257.054 113,266.5C 111.883,267.949 111.216,269.616 111,271.5C 109.028,270.695 107.528,269.361 106.5,267.5C 106.977,266.522 107.643,265.689 108.5,265C 107.448,263.881 106.281,263.381 105,263.5C 104.677,268.699 104.843,273.532 105.5,278C 103.406,281.582 100.406,282.415 96.5,280.5C 94.5138,282.783 93.3471,282.116 93,278.5C 90.9343,282.506 89.4343,282.173 88.5,277.5C 88.1667,277.833 87.8333,278.167 87.5,278.5C 86.1923,283.32 86.1923,288.154 87.5,293C 87.2196,294.395 86.5529,295.562 85.5,296.5C 84.2378,288.119 84.2378,279.619 85.5,271C 84.4563,268.118 83.7896,265.118 83.5,262C 84.9486,259.159 84.4486,256.992 82,255.5C 81.5026,252.854 81.3359,250.187 81.5,247.5C 81.8333,247.5 82.1667,247.5 82.5,247.5C 92.0023,241.581 101.669,235.914 111.5,230.5 Z"/></g>
<g><path style="opacity:1" fill="#138ec1" d="M 293.5,235.5 C 293.586,236.496 293.252,237.329 292.5,238C 288.901,241.09 284.901,243.59 280.5,245.5C 281.266,249.5 283.1,250.167 286,247.5C 288.801,248.795 291.634,248.795 294.5,247.5C 294.833,247.833 295.167,248.167 295.5,248.5C 294.147,249.524 293.48,250.857 293.5,252.5C 291.524,255.148 289.524,257.815 287.5,260.5C 291.358,267.079 294.025,274.079 295.5,281.5C 294.127,281.657 292.793,281.49 291.5,281C 277.147,273.987 262.48,267.82 247.5,262.5C 247.5,262.167 247.5,261.833 247.5,261.5C 255.599,257.616 263.599,253.45 271.5,249C 273.093,248.051 274.426,246.885 275.5,245.5C 281.473,242.179 287.473,238.845 293.5,235.5 Z"/></g>
<g><path style="opacity:1" fill="#0a9ccc" d="M 245.5,233.5 C 246.167,233.5 246.833,233.5 247.5,233.5C 247.5,242.833 247.5,252.167 247.5,261.5C 247.5,261.833 247.5,262.167 247.5,262.5C 247.5,262.833 247.5,263.167 247.5,263.5C 245.881,270.409 242.881,276.742 238.5,282.5C 237.193,281.198 237.193,279.865 238.5,278.5C 237.833,278.167 237.167,277.833 236.5,277.5C 233.742,278.962 230.909,280.295 228,281.5C 227.101,279.673 225.767,278.34 224,277.5C 222.234,278.233 220.401,278.567 218.5,278.5C 218.22,281.388 219.553,282.888 222.5,283C 221.892,283.87 221.059,284.37 220,284.5C 216.736,283.224 213.569,281.724 210.5,280C 213.407,278.391 216.073,276.558 218.5,274.5C 220.368,273.737 222.035,272.737 223.5,271.5C 231.515,268.993 239.182,265.66 246.5,261.5C 238.833,257 231.167,252.5 223.5,248C 222.177,247.184 221.511,246.017 221.5,244.5C 229.776,241.197 237.776,237.53 245.5,233.5 Z"/></g>
<g><path style="opacity:0.004" fill="#000000" d="M 4.5,270.5 C 5.83333,271.167 5.83333,271.167 4.5,270.5 Z"/></g>
<g><path style="opacity:0.004" fill="#000000" d="M -0.5,272.5 C 0.833333,273.167 0.833333,273.167 -0.5,272.5 Z"/></g>
<g><path style="opacity:1" fill="#126a9b" d="M 164.5,209.5 C 164.5,209.833 164.5,210.167 164.5,210.5C 164.962,215.093 166.295,219.426 168.5,223.5C 166.711,228.407 165.878,233.74 166,239.5C 165.333,258.5 165.333,277.5 166,296.5C 172.592,284.976 179.425,273.643 186.5,262.5C 189.375,265.614 191.209,269.281 192,273.5C 193,274.167 194,274.833 195,275.5C 195.153,278.151 195.987,280.484 197.5,282.5C 186.802,288.181 176.135,293.848 165.5,299.5C 164.883,299.389 164.383,299.056 164,298.5C 163.833,294.5 163.667,290.5 163.5,286.5C 164.371,260.859 164.705,235.192 164.5,209.5 Z"/></g>
<g><path style="opacity:1" fill="#045189" d="M 401.5,277.5 C 401.724,281.179 402.058,284.846 402.5,288.5C 403.5,288.5 404.5,288.5 405.5,288.5C 405.5,293.5 405.5,298.5 405.5,303.5C 405.549,311.209 405.216,319.209 404.5,327.5C 403.71,326.391 403.21,325.058 403,323.5C 402.47,326.327 401.47,329.327 400,332.5C 399.21,330.21 397.876,329.877 396,331.5C 392.085,329.209 388.085,327.209 384,325.5C 383.667,325.833 383.333,326.167 383,326.5C 382.605,324.821 382.772,323.155 383.5,321.5C 383.253,320.287 382.586,319.62 381.5,319.5C 381.009,306.671 380.342,294.004 379.5,281.5C 378.833,281.5 378.5,281.167 378.5,280.5C 378.833,280.5 379.167,280.5 379.5,280.5C 379.833,280.5 380.167,280.5 380.5,280.5C 381.222,280.082 381.722,279.416 382,278.5C 386.698,280.16 391.031,279.493 395,276.5C 396.542,278.304 398.209,279.971 400,281.5C 400.21,279.942 400.71,278.609 401.5,277.5 Z"/></g>
<g><path style="opacity:1" fill="#043872" d="M 307.5,261.5 C 309.017,261.511 310.184,262.177 311,263.5C 311.36,265.608 312.027,267.608 313,269.5C 318.187,276.516 322.354,284.183 325.5,292.5C 328.071,293.728 329.405,295.728 329.5,298.5C 319.173,294 309.173,288.833 299.5,283C 298.207,282.51 296.873,282.343 295.5,282.5C 295.5,282.167 295.5,281.833 295.5,281.5C 297.407,279.403 299.241,277.069 301,274.5C 302.685,269.796 304.852,265.462 307.5,261.5 Z"/></g>
<g><path style="opacity:1" fill="#06295e" d="M 138.5,227.5 C 139.498,253.661 139.831,279.995 139.5,306.5C 139.5,307.5 139.5,308.5 139.5,309.5C 132.179,299.538 124.845,289.538 117.5,279.5C 124.49,277.725 131.49,276.058 138.5,274.5C 138.046,258.859 138.046,243.192 138.5,227.5 Z"/></g>
<g><path style="opacity:1" fill="#032e6c" d="M 247.5,267.5 C 248.376,267.369 249.043,267.702 249.5,268.5C 253.529,276.558 257.529,284.558 261.5,292.5C 264.635,297.625 267.302,302.958 269.5,308.5C 268.983,311.454 267.649,314.121 265.5,316.5C 260.995,316.841 258.162,319.174 257,323.5C 256.333,322.833 255.667,322.167 255,321.5C 253.693,322.772 252.193,323.772 250.5,324.5C 250.977,325.478 251.643,326.311 252.5,327C 251.365,327.749 250.365,327.583 249.5,326.5C 248.853,315.038 248.187,303.705 247.5,292.5C 247.5,284.167 247.5,275.833 247.5,267.5 Z"/></g>
<g><path style="opacity:1" fill="#10b1d5" d="M 218.5,274.5 C 216.073,276.558 213.407,278.391 210.5,280C 213.569,281.724 216.736,283.224 220,284.5C 221.059,284.37 221.892,283.87 222.5,283C 219.553,282.888 218.22,281.388 218.5,278.5C 220.401,278.567 222.234,278.233 224,277.5C 225.767,278.34 227.101,279.673 228,281.5C 230.909,280.295 233.742,278.962 236.5,277.5C 237.167,277.833 237.833,278.167 238.5,278.5C 237.193,279.865 237.193,281.198 238.5,282.5C 235.437,289.626 232.104,296.626 228.5,303.5C 225.596,307.633 222.929,311.967 220.5,316.5C 220.068,315.29 219.401,314.29 218.5,313.5C 212.556,302.898 206.222,292.564 199.5,282.5C 199.5,282.167 199.5,281.833 199.5,281.5C 205.932,279.452 212.265,277.118 218.5,274.5 Z"/></g>
<g><path style="opacity:1" fill="#055490" d="M 247.5,262.5 C 262.48,267.82 277.147,273.987 291.5,281C 292.793,281.49 294.127,281.657 295.5,281.5C 295.5,281.833 295.5,282.167 295.5,282.5C 284.104,285.517 272.771,288.85 261.5,292.5C 257.529,284.558 253.529,276.558 249.5,268.5C 249.043,267.702 248.376,267.369 247.5,267.5C 247.5,266.167 247.5,264.833 247.5,263.5C 247.5,263.167 247.5,262.833 247.5,262.5 Z"/></g>
<g><path style="opacity:1" fill="#05366f" d="M 358.5,276.5 C 364.222,276.898 369.889,277.731 375.5,279C 376.147,280.609 376.98,282.109 378,283.5C 378.717,282.956 379.217,282.289 379.5,281.5C 380.342,294.004 381.009,306.671 381.5,319.5C 381.855,324.486 379.855,325.819 375.5,323.5C 368.756,320.961 362.422,317.628 356.5,313.5C 355.5,313.5 354.5,313.5 353.5,313.5C 353.5,312.833 353.833,312.5 354.5,312.5C 355.106,309.833 355.939,307.166 357,304.5C 357.219,295.12 357.719,285.787 358.5,276.5 Z"/></g>
<g><path style="opacity:1" fill="#0677a8" d="M 247.5,263.5 C 247.5,264.833 247.5,266.167 247.5,267.5C 247.5,275.833 247.5,284.167 247.5,292.5C 247.5,314.167 247.5,335.833 247.5,357.5C 245.003,356.871 243.67,355.204 243.5,352.5C 244.825,351.047 245.658,351.381 246,353.5C 246.667,341.833 246.667,330.167 246,318.5C 245.586,318.957 245.086,319.291 244.5,319.5C 243.67,313.862 243.17,308.196 243,302.5C 242.821,305.553 242.321,308.553 241.5,311.5C 240.808,310.975 240.308,310.308 240,309.5C 239.781,310.938 239.281,312.271 238.5,313.5C 236.833,312.5 235.5,311.167 234.5,309.5C 232.505,311.11 230.339,312.443 228,313.5C 226.635,312.407 226.301,311.074 227,309.5C 227.333,310.167 227.667,310.833 228,311.5C 228.942,308.729 229.108,306.062 228.5,303.5C 232.104,296.626 235.437,289.626 238.5,282.5C 242.881,276.742 245.881,270.409 247.5,263.5 Z"/></g>
<g><path style="opacity:1" fill="#074d88" d="M 295.5,282.5 C 291.52,289.783 287.02,296.783 282,303.5C 280.991,305.025 280.491,306.692 280.5,308.5C 278.453,310.55 276.786,312.883 275.5,315.5C 273.56,313.218 271.56,310.885 269.5,308.5C 267.302,302.958 264.635,297.625 261.5,292.5C 272.771,288.85 284.104,285.517 295.5,282.5 Z"/></g>
<g><path style="opacity:1" fill="#08264e" d="M 354.5,194.5 C 354.833,194.5 355.167,194.5 355.5,194.5C 359.587,199.915 363.254,205.582 366.5,211.5C 362.438,211.276 359.605,209.276 358,205.5C 357.358,212.995 356.858,220.328 356.5,227.5C 355.173,243.005 355.173,258.672 356.5,274.5C 357.522,274.855 358.189,275.522 358.5,276.5C 357.719,285.787 357.219,295.12 357,304.5C 355.939,307.166 355.106,309.833 354.5,312.5C 354.5,273.167 354.5,233.833 354.5,194.5 Z"/></g>
<g><path style="opacity:1" fill="#0b4f85" d="M 414.5,168.5 C 415.307,213.297 415.641,258.297 415.5,303.5C 414.943,316.396 414.11,329.396 413,342.5C 409.087,338.093 406.254,333.093 404.5,327.5C 405.216,319.209 405.549,311.209 405.5,303.5C 406.473,302.209 407.473,302.209 408.5,303.5C 409.329,298.533 409.829,293.533 410,288.5C 410.667,287.833 411.333,287.167 412,286.5C 412.691,273.151 412.525,259.817 411.5,246.5C 413.164,220.683 414.164,194.683 414.5,168.5 Z"/></g>
<g><path style="opacity:1" fill="#047eae" d="M 117.5,279.5 C 124.845,289.538 132.179,299.538 139.5,309.5C 140.345,310.671 141.011,312.005 141.5,313.5C 137.993,313.92 134.659,314.92 131.5,316.5C 126.029,317.979 121.029,320.312 116.5,323.5C 115.334,310.513 115.167,297.513 116,284.5C 117.066,282.848 117.566,281.181 117.5,279.5 Z"/></g>
<g><path style="opacity:1" fill="#07295d" d="M 197.5,282.5 C 198.167,282.5 198.833,282.5 199.5,282.5C 206.222,292.564 212.556,302.898 218.5,313.5C 215.975,312.319 213.475,310.986 211,309.5C 210.586,309.957 210.086,310.291 209.5,310.5C 195.362,306.343 181.029,303.01 166.5,300.5C 165.833,300.5 165.5,300.167 165.5,299.5C 176.135,293.848 186.802,288.181 197.5,282.5 Z"/></g>
<g><path style="opacity:1" fill="#041642" d="M 295.5,282.5 C 296.873,282.343 298.207,282.51 299.5,283C 309.173,288.833 319.173,294 329.5,298.5C 330.167,298.5 330.833,298.5 331.5,298.5C 327.378,301.734 323.045,304.734 318.5,307.5C 318.649,306.448 318.483,305.448 318,304.5C 313.315,308.01 308.315,311.01 303,313.5C 301.85,312.576 300.85,312.576 300,313.5C 299.355,312.354 298.522,311.354 297.5,310.5C 298.025,309.808 298.692,309.308 299.5,309C 294.718,307.192 289.885,307.358 285,309.5C 283.56,308.852 282.06,308.519 280.5,308.5C 280.491,306.692 280.991,305.025 282,303.5C 287.02,296.783 291.52,289.783 295.5,282.5 Z"/></g>
<g><path style="opacity:0.004" fill="#000000" d="M 48.5,310.5 C 49.8333,311.167 49.8333,311.167 48.5,310.5 Z"/></g>
<g><path style="opacity:1" fill="#043671" d="M 247.5,292.5 C 248.187,303.705 248.853,315.038 249.5,326.5C 250.365,327.583 251.365,327.749 252.5,327C 251.643,326.311 250.977,325.478 250.5,324.5C 252.193,323.772 253.693,322.772 255,321.5C 255.667,322.167 256.333,322.833 257,323.5C 258.162,319.174 260.995,316.841 265.5,316.5C 267.649,314.121 268.983,311.454 269.5,308.5C 271.56,310.885 273.56,313.218 275.5,315.5C 269.654,323.86 264.321,332.527 259.5,341.5C 256.461,347.587 252.461,352.921 247.5,357.5C 247.5,335.833 247.5,314.167 247.5,292.5 Z"/></g>
<g><path style="opacity:1" fill="#1395c5" d="M 356.5,313.5 C 362.422,317.628 368.756,320.961 375.5,323.5C 377.349,324.593 379.016,325.926 380.5,327.5C 374.7,330.904 369.033,334.571 363.5,338.5C 363.586,337.504 363.252,336.671 362.5,336C 363.793,335.51 365.127,335.343 366.5,335.5C 366.676,331.842 365.176,330.842 362,332.5C 359.545,331.048 356.878,330.048 354,329.5C 353,330.167 352,330.833 351,331.5C 349.629,330.419 348.129,329.585 346.5,329C 343.47,328.712 340.636,328.545 338,328.5C 337.833,328.167 337.667,327.833 337.5,327.5C 340.992,324.432 344.992,322.099 349.5,320.5C 350.386,319.675 350.719,318.675 350.5,317.5C 353.036,316.963 355.036,315.63 356.5,313.5 Z"/></g>
<g><path style="opacity:0.997" fill="#061b48" d="M 166.5,300.5 C 181.029,303.01 195.362,306.343 209.5,310.5C 210.086,310.291 210.586,309.957 211,309.5C 213.475,310.986 215.975,312.319 218.5,313.5C 219.401,314.29 220.068,315.29 220.5,316.5C 225.256,323.252 229.59,330.252 233.5,337.5C 230.821,336.774 228.154,335.941 225.5,335C 205.442,323.978 185.775,312.478 166.5,300.5 Z"/></g>
<g><path style="opacity:0.004" fill="#000000" d="M 434.5,323.5 C 435.833,324.167 435.833,324.167 434.5,323.5 Z"/></g>
<g><path style="opacity:1" fill="#041338" d="M 318.5,307.5 C 298.343,318.075 278.677,329.409 259.5,341.5C 264.321,332.527 269.654,323.86 275.5,315.5C 276.786,312.883 278.453,310.55 280.5,308.5C 282.06,308.519 283.56,308.852 285,309.5C 289.885,307.358 294.718,307.192 299.5,309C 298.692,309.308 298.025,309.808 297.5,310.5C 298.522,311.354 299.355,312.354 300,313.5C 300.85,312.576 301.85,312.576 303,313.5C 308.315,311.01 313.315,308.01 318,304.5C 318.483,305.448 318.649,306.448 318.5,307.5 Z"/></g>
<g><path style="opacity:1" fill="#1cc6db" d="M 114.5,308.5 C 114.171,314.206 114.505,319.872 115.5,325.5C 121.188,322.993 126.521,319.993 131.5,316.5C 134.659,314.92 137.993,313.92 141.5,313.5C 153.204,320.013 164.538,327.013 175.5,334.5C 175.586,335.496 175.252,336.329 174.5,337C 172.187,337.662 169.854,338.162 167.5,338.5C 158.887,340.486 150.22,342.486 141.5,344.5C 141.167,344.5 140.833,344.5 140.5,344.5C 131.508,338.334 122.174,332.667 112.5,327.5C 113.13,321.066 113.797,314.733 114.5,308.5 Z"/></g>
<g><path style="opacity:1" fill="#052a63" d="M 380.5,327.5 C 385.354,329.739 390.354,331.905 395.5,334C 400.092,337.451 404.758,340.618 409.5,343.5C 406.713,344.477 403.713,344.81 400.5,344.5C 385.167,344.5 369.833,344.5 354.5,344.5C 357.291,342.265 360.291,340.265 363.5,338.5C 369.033,334.571 374.7,330.904 380.5,327.5 Z"/></g>
<g><path style="opacity:1" fill="#074277" d="M 415.5,303.5 C 415.667,316.171 415.5,328.838 415,341.5C 414.34,343.324 413.173,344.657 411.5,345.5C 411.167,344.5 410.5,343.833 409.5,343.5C 404.758,340.618 400.092,337.451 395.5,334C 390.354,331.905 385.354,329.739 380.5,327.5C 379.016,325.926 377.349,324.593 375.5,323.5C 379.855,325.819 381.855,324.486 381.5,319.5C 382.586,319.62 383.253,320.287 383.5,321.5C 382.772,323.155 382.605,324.821 383,326.5C 383.333,326.167 383.667,325.833 384,325.5C 388.085,327.209 392.085,329.209 396,331.5C 397.876,329.877 399.21,330.21 400,332.5C 401.47,329.327 402.47,326.327 403,323.5C 403.21,325.058 403.71,326.391 404.5,327.5C 406.254,333.093 409.087,338.093 413,342.5C 414.11,329.396 414.943,316.396 415.5,303.5 Z"/></g>
<g><path style="opacity:1" fill="#8ae6ea" d="M 114.5,284.5 C 114.5,292.5 114.5,300.5 114.5,308.5C 113.797,314.733 113.13,321.066 112.5,327.5C 102.468,332.848 92.4685,338.181 82.5,343.5C 92.9306,323.634 103.597,303.967 114.5,284.5 Z"/></g>
<g><path style="opacity:1" fill="#19a0cb" d="M 353.5,313.5 C 354.5,313.5 355.5,313.5 356.5,313.5C 355.036,315.63 353.036,316.963 350.5,317.5C 350.719,318.675 350.386,319.675 349.5,320.5C 344.992,322.099 340.992,324.432 337.5,327.5C 337.667,327.833 337.833,328.167 338,328.5C 340.636,328.545 343.47,328.712 346.5,329C 348.129,329.585 349.629,330.419 351,331.5C 352,330.833 353,330.167 354,329.5C 356.878,330.048 359.545,331.048 362,332.5C 365.176,330.842 366.676,331.842 366.5,335.5C 365.127,335.343 363.793,335.51 362.5,336C 363.252,336.671 363.586,337.504 363.5,338.5C 360.291,340.265 357.291,342.265 354.5,344.5C 354.167,344.5 353.833,344.5 353.5,344.5C 345.516,342.504 337.516,340.504 329.5,338.5C 326.274,337.511 322.94,336.511 319.5,335.5C 319.833,334.833 320.167,334.167 320.5,333.5C 330.993,326.083 341.993,319.416 353.5,313.5 Z"/></g>
<g><path style="opacity:1" fill="#0caac6" d="M 167.5,338.5 C 169.396,342.729 172.063,346.396 175.5,349.5C 177.438,353.926 178.438,358.592 178.5,363.5C 179.5,363.5 180.5,363.5 181.5,363.5C 181.325,365.621 181.659,367.621 182.5,369.5C 179.55,368.692 176.883,367.358 174.5,365.5C 169.498,361.997 164.165,358.997 158.5,356.5C 153.009,352.254 147.342,348.254 141.5,344.5C 150.22,342.486 158.887,340.486 167.5,338.5 Z"/></g>
<g><path style="opacity:1" fill="#053671" d="M 329.5,338.5 C 337.516,340.504 345.516,342.504 353.5,344.5C 346.377,349.895 338.71,354.561 330.5,358.5C 330.585,357.005 329.919,356.005 328.5,355.5C 324.954,356.876 321.787,358.876 319,361.5C 317.795,360.929 316.628,360.262 315.5,359.5C 319.015,352.18 322.682,345.18 326.5,338.5C 327.5,338.5 328.5,338.5 329.5,338.5 Z"/></g>
<g><path style="opacity:1" fill="#0e6fa5" d="M 112.5,327.5 C 122.174,332.667 131.508,338.334 140.5,344.5C 120.833,344.5 101.167,344.5 81.5,344.5C 80.8333,344.5 80.5,344.167 80.5,343.5C 81.1667,343.5 81.8333,343.5 82.5,343.5C 92.4685,338.181 102.468,332.848 112.5,327.5 Z"/></g>
<g><path style="opacity:1" fill="#041d54" d="M 353.5,344.5 C 353.833,344.5 354.167,344.5 354.5,344.5C 369.833,344.5 385.167,344.5 400.5,344.5C 403.23,345.991 403.063,347.325 400,348.5C 399.517,349.448 399.351,350.448 399.5,351.5C 394.085,352.865 389.085,355.198 384.5,358.5C 384.446,357.47 384.112,356.303 383.5,355C 381.833,354.333 380.167,354.333 378.5,355C 379.849,355.772 380.682,356.939 381,358.5C 381.333,358.167 381.667,357.833 382,357.5C 382.49,358.793 382.657,360.127 382.5,361.5C 378.163,360.485 373.163,360.485 367.5,361.5C 368.274,362.711 369.107,362.711 370,361.5C 372.632,363.515 372.798,365.515 370.5,367.5C 364.801,370.681 359.135,373.847 353.5,377C 350.536,377.569 347.87,376.902 345.5,375C 346.167,374.667 346.833,374.333 347.5,374C 346.207,373.51 344.873,373.343 343.5,373.5C 343.649,372.448 343.483,371.448 343,370.5C 341.989,371.337 340.822,371.67 339.5,371.5C 339.67,370.178 339.337,369.011 338.5,368C 336.527,367.505 334.527,367.338 332.5,367.5C 332.5,366.167 332.5,364.833 332.5,363.5C 330.102,363.741 328.102,363.074 326.5,361.5C 327.436,360.026 328.77,359.026 330.5,358.5C 338.71,354.561 346.377,349.895 353.5,344.5 Z"/></g>
<g><path style="opacity:1" fill="#0a83ac" d="M 243.5,352.5 C 239.932,347.709 236.598,342.709 233.5,337.5C 229.59,330.252 225.256,323.252 220.5,316.5C 222.929,311.967 225.596,307.633 228.5,303.5C 229.108,306.062 228.942,308.729 228,311.5C 227.667,310.833 227.333,310.167 227,309.5C 226.301,311.074 226.635,312.407 228,313.5C 230.339,312.443 232.505,311.11 234.5,309.5C 235.5,311.167 236.833,312.5 238.5,313.5C 239.281,312.271 239.781,310.938 240,309.5C 240.308,310.308 240.808,310.975 241.5,311.5C 242.321,308.553 242.821,305.553 243,302.5C 243.17,308.196 243.67,313.862 244.5,319.5C 245.086,319.291 245.586,318.957 246,318.5C 246.667,330.167 246.667,341.833 246,353.5C 245.658,351.381 244.825,351.047 243.5,352.5 Z"/></g>
<g><path style="opacity:1" fill="#053772" d="M 81.5,344.5 C 101.167,344.5 120.833,344.5 140.5,344.5C 140.833,344.5 141.167,344.5 141.5,344.5C 147.342,348.254 153.009,352.254 158.5,356.5C 156.801,356.66 155.134,356.494 153.5,356C 151.42,351.48 148.42,350.314 144.5,352.5C 143.28,351.289 142.113,351.289 141,352.5C 140.667,354.833 140.333,357.167 140,359.5C 139.085,358.672 138.419,357.672 138,356.5C 137.586,356.957 137.086,357.291 136.5,357.5C 135.796,360.704 135.13,363.871 134.5,367C 132.42,369.928 130.253,370.095 128,367.5C 127.014,368.171 125.847,368.171 124.5,367.5C 120.86,366.684 117.86,364.851 115.5,362C 113.527,361.505 111.527,361.338 109.5,361.5C 99.8258,356.333 90.4924,350.666 81.5,344.5 Z"/></g>
<g><path style="opacity:0.004" fill="#000000" d="M 416.5,349.5 C 417.833,350.167 417.833,350.167 416.5,349.5 Z"/></g>
<g><path style="opacity:1" fill="#05346e" d="M 158.5,356.5 C 164.165,358.997 169.498,361.997 174.5,365.5C 174.733,367.062 175.4,368.395 176.5,369.5C 176.36,371.124 177.027,372.29 178.5,373C 175.957,375.351 176.623,376.517 180.5,376.5C 180.48,378.143 181.147,379.476 182.5,380.5C 181.846,382.115 181.346,383.782 181,385.5C 177.631,388.018 173.964,390.018 170,391.5C 168.513,390.747 168.346,389.914 169.5,389C 166.659,387.166 163.825,385.333 161,383.5C 158.494,385.607 155.661,386.44 152.5,386C 151.167,384 149.833,382 148.5,380C 145.957,379.86 143.623,379.194 141.5,378C 143.056,376.401 144.723,374.901 146.5,373.5C 145.017,371.054 143.851,371.388 143,374.5C 141.915,373.707 140.748,373.04 139.5,372.5C 138.304,372.846 138.304,373.346 139.5,374C 138.737,374.944 137.737,375.444 136.5,375.5C 134.6,374.553 133.267,373.053 132.5,371C 129.064,371.896 126.397,370.73 124.5,367.5C 125.847,368.171 127.014,368.171 128,367.5C 130.253,370.095 132.42,369.928 134.5,367C 135.13,363.871 135.796,360.704 136.5,357.5C 137.086,357.291 137.586,356.957 138,356.5C 138.419,357.672 139.085,358.672 140,359.5C 140.333,357.167 140.667,354.833 141,352.5C 142.113,351.289 143.28,351.289 144.5,352.5C 148.42,350.314 151.42,351.48 153.5,356C 155.134,356.494 156.801,356.66 158.5,356.5 Z"/></g>
<g><path style="opacity:0.004" fill="#000000" d="M 35.5,354.5 C 36.8333,355.167 36.8333,355.167 35.5,354.5 Z"/></g>
<g><path style="opacity:1" fill="#074782" d="M 319.5,335.5 C 322.94,336.511 326.274,337.511 329.5,338.5C 328.5,338.5 327.5,338.5 326.5,338.5C 322.682,345.18 319.015,352.18 315.5,359.5C 316.628,360.262 317.795,360.929 319,361.5C 321.787,358.876 324.954,356.876 328.5,355.5C 329.919,356.005 330.585,357.005 330.5,358.5C 328.77,359.026 327.436,360.026 326.5,361.5C 320.602,365.021 314.602,368.355 308.5,371.5C 305.142,370.321 302.142,368.487 299.5,366C 300.167,365.667 300.833,365.333 301.5,365C 298.45,364.503 297.45,363.003 298.5,360.5C 297.783,358.172 296.783,356.005 295.5,354C 295.862,352.775 296.362,351.609 297,350.5C 302.701,345.272 309.201,341.272 316.5,338.5C 317.188,337.145 318.188,336.145 319.5,335.5 Z"/></g>
<g><path style="opacity:1" fill="#16c3e3" d="M 175.5,334.5 C 184.139,339.488 192.806,344.488 201.5,349.5C 203.005,353.353 204.005,357.353 204.5,361.5C 203.107,360.74 201.607,360.074 200,359.5C 199.167,359.667 198.333,359.833 197.5,360C 199.291,362.106 199.958,364.606 199.5,367.5C 198.022,367.762 196.689,367.429 195.5,366.5C 193.358,363.927 190.692,362.094 187.5,361C 188.167,360.667 188.833,360.333 189.5,360C 188.062,359.781 186.729,359.281 185.5,358.5C 185.846,357.304 186.346,357.304 187,358.5C 187.49,357.207 187.657,355.873 187.5,354.5C 185.027,354.264 183.36,352.931 182.5,350.5C 180.257,349.526 177.924,349.192 175.5,349.5C 172.063,346.396 169.396,342.729 167.5,338.5C 169.854,338.162 172.187,337.662 174.5,337C 175.252,336.329 175.586,335.496 175.5,334.5 Z"/></g>
<g><path style="opacity:1" fill="#051b4e" d="M 409.5,343.5 C 410.5,343.833 411.167,344.5 411.5,345.5C 386.572,359.769 361.905,374.435 337.5,389.5C 337.265,388.903 336.765,388.57 336,388.5C 330.739,390.914 325.572,393.581 320.5,396.5C 318.374,394.285 315.708,393.118 312.5,393C 311.252,391.041 309.585,389.541 307.5,388.5C 308.833,387.5 310.167,386.5 311.5,385.5C 311.023,384.522 310.357,383.689 309.5,383C 311.384,381.951 312.718,380.451 313.5,378.5C 314.413,376.914 314.413,375.414 313.5,374C 315.645,373.257 315.811,372.424 314,371.5C 310.644,373.263 307.144,374.596 303.5,375.5C 304.984,373.926 306.651,372.593 308.5,371.5C 314.602,368.355 320.602,365.021 326.5,361.5C 328.102,363.074 330.102,363.741 332.5,363.5C 332.5,364.833 332.5,366.167 332.5,367.5C 334.527,367.338 336.527,367.505 338.5,368C 339.337,369.011 339.67,370.178 339.5,371.5C 340.822,371.67 341.989,371.337 343,370.5C 343.483,371.448 343.649,372.448 343.5,373.5C 344.873,373.343 346.207,373.51 347.5,374C 346.833,374.333 346.167,374.667 345.5,375C 347.87,376.902 350.536,377.569 353.5,377C 359.135,373.847 364.801,370.681 370.5,367.5C 372.798,365.515 372.632,363.515 370,361.5C 369.107,362.711 368.274,362.711 367.5,361.5C 373.163,360.485 378.163,360.485 382.5,361.5C 382.657,360.127 382.49,358.793 382,357.5C 381.667,357.833 381.333,358.167 381,358.5C 380.682,356.939 379.849,355.772 378.5,355C 380.167,354.333 381.833,354.333 383.5,355C 384.112,356.303 384.446,357.47 384.5,358.5C 389.085,355.198 394.085,352.865 399.5,351.5C 399.351,350.448 399.517,349.448 400,348.5C 403.063,347.325 403.23,345.991 400.5,344.5C 403.713,344.81 406.713,344.477 409.5,343.5 Z"/></g>
<g><path style="opacity:1" fill="#24cde7" d="M 175.5,349.5 C 177.924,349.192 180.257,349.526 182.5,350.5C 183.36,352.931 185.027,354.264 187.5,354.5C 187.657,355.873 187.49,357.207 187,358.5C 186.346,357.304 185.846,357.304 185.5,358.5C 186.729,359.281 188.062,359.781 189.5,360C 188.833,360.333 188.167,360.667 187.5,361C 190.692,362.094 193.358,363.927 195.5,366.5C 196.689,367.429 198.022,367.762 199.5,367.5C 199.958,364.606 199.291,362.106 197.5,360C 198.333,359.833 199.167,359.667 200,359.5C 201.607,360.074 203.107,360.74 204.5,361.5C 206.405,365.215 207.738,369.215 208.5,373.5C 209.91,377.397 210.91,381.397 211.5,385.5C 210.5,385.5 209.5,385.5 208.5,385.5C 204.705,383.769 201.038,381.769 197.5,379.5C 192.477,376.133 187.477,372.8 182.5,369.5C 181.659,367.621 181.325,365.621 181.5,363.5C 180.5,363.5 179.5,363.5 178.5,363.5C 178.438,358.592 177.438,353.926 175.5,349.5 Z"/></g>
<g><path style="opacity:1" fill="#1694c1" d="M 201.5,349.5 C 215.536,358.181 229.536,366.847 243.5,375.5C 242.153,374.829 240.986,374.829 240,375.5C 239.667,374.833 239.333,374.167 239,373.5C 237.812,374.563 237.312,375.897 237.5,377.5C 233.077,375.513 228.91,373.513 225,371.5C 224.779,374.943 223.779,375.276 222,372.5C 216.793,372.147 213.459,374.481 212,379.5C 211.576,376.975 210.41,374.975 208.5,373.5C 207.738,369.215 206.405,365.215 204.5,361.5C 204.005,357.353 203.005,353.353 201.5,349.5 Z"/></g>
<g><path style="opacity:1" fill="#0b5088" d="M 320.5,333.5 C 320.167,334.167 319.833,334.833 319.5,335.5C 318.188,336.145 317.188,337.145 316.5,338.5C 309.201,341.272 302.701,345.272 297,350.5C 296.362,351.609 295.862,352.775 295.5,354C 296.783,356.005 297.783,358.172 298.5,360.5C 297.45,363.003 298.45,364.503 301.5,365C 300.833,365.333 300.167,365.667 299.5,366C 302.142,368.487 305.142,370.321 308.5,371.5C 306.651,372.593 304.984,373.926 303.5,375.5C 297.358,379.408 291.024,383.074 284.5,386.5C 283.609,387.11 282.609,387.443 281.5,387.5C 284.909,376.274 287.909,364.941 290.5,353.5C 289.167,353.5 287.833,353.5 286.5,353.5C 297.496,346.332 308.83,339.666 320.5,333.5 Z"/></g>
<g><path style="opacity:1" fill="#1ca7cf" d="M 286.5,353.5 C 287.833,353.5 289.167,353.5 290.5,353.5C 287.909,364.941 284.909,376.274 281.5,387.5C 281.158,388.338 280.492,388.672 279.5,388.5C 269.569,385.185 259.569,382.185 249.5,379.5C 248.833,378.833 248.167,378.167 247.5,377.5C 260.297,369.263 273.297,361.263 286.5,353.5 Z"/></g>
<g><path style="opacity:0.004" fill="#000000" d="M 452.5,376.5 C 453.833,377.167 453.833,377.167 452.5,376.5 Z"/></g>
<g><path style="opacity:1" fill="#1aa5cd" d="M 243.5,375.5 C 243.577,376.75 244.244,377.583 245.5,378C 234.661,382.665 223.328,385.831 211.5,387.5C 210.29,387.068 209.29,386.401 208.5,385.5C 209.5,385.5 210.5,385.5 211.5,385.5C 210.91,381.397 209.91,377.397 208.5,373.5C 210.41,374.975 211.576,376.975 212,379.5C 213.459,374.481 216.793,372.147 222,372.5C 223.779,375.276 224.779,374.943 225,371.5C 228.91,373.513 233.077,375.513 237.5,377.5C 237.312,375.897 237.812,374.563 239,373.5C 239.333,374.167 239.667,374.833 240,375.5C 240.986,374.829 242.153,374.829 243.5,375.5 Z"/></g>
<g><path style="opacity:1" fill="#07386e" d="M 109.5,361.5 C 111.527,361.338 113.527,361.505 115.5,362C 117.86,364.851 120.86,366.684 124.5,367.5C 126.397,370.73 129.064,371.896 132.5,371C 133.267,373.053 134.6,374.553 136.5,375.5C 137.737,375.444 138.737,374.944 139.5,374C 138.304,373.346 138.304,372.846 139.5,372.5C 140.748,373.04 141.915,373.707 143,374.5C 143.851,371.388 145.017,371.054 146.5,373.5C 144.723,374.901 143.056,376.401 141.5,378C 143.623,379.194 145.957,379.86 148.5,380C 149.833,382 151.167,384 152.5,386C 155.661,386.44 158.494,385.607 161,383.5C 163.825,385.333 166.659,387.166 169.5,389C 168.346,389.914 168.513,390.747 170,391.5C 173.964,390.018 177.631,388.018 181,385.5C 181.346,383.782 181.846,382.115 182.5,380.5C 181.147,379.476 180.48,378.143 180.5,376.5C 176.623,376.517 175.957,375.351 178.5,373C 177.027,372.29 176.36,371.124 176.5,369.5C 177.376,369.369 178.043,369.702 178.5,370.5C 181.832,377.667 186.332,384.001 192,389.5C 195.743,395.705 199.576,401.705 203.5,407.5C 204.675,407.281 205.675,407.614 206.5,408.5C 208.83,412.324 211.663,415.658 215,418.5C 216.413,420.652 217.246,422.986 217.5,425.5C 219.179,425.285 220.179,425.952 220.5,427.5C 183.327,405.749 146.327,383.749 109.5,361.5 Z"/></g>
<g><path style="opacity:1" fill="#05123e" d="M 313.5,378.5 C 312.527,377.209 311.527,377.209 310.5,378.5C 304.756,385.731 299.256,393.065 294,400.5C 293.144,402.868 292.31,405.202 291.5,407.5C 287.197,407.735 285.53,410.069 286.5,414.5C 282.316,415.94 278.316,417.774 274.5,420C 277.202,423.382 279.535,423.215 281.5,419.5C 284.438,418.511 287.438,417.844 290.5,417.5C 278.038,426.238 265.038,434.238 251.5,441.5C 253.664,438.427 255.997,435.427 258.5,432.5C 258.291,431.914 257.957,431.414 257.5,431C 258.667,429.833 259.833,428.667 261,427.5C 264.787,420.21 268.454,412.876 272,405.5C 274.584,403.424 276.251,400.757 277,397.5C 278,396.833 279,396.167 280,395.5C 281.014,392.138 282.514,389.138 284.5,386.5C 291.024,383.074 297.358,379.408 303.5,375.5C 307.144,374.596 310.644,373.263 314,371.5C 315.811,372.424 315.645,373.257 313.5,374C 314.413,375.414 314.413,376.914 313.5,378.5 Z"/></g>
<g><path style="opacity:1" fill="#1599c8" d="M 243.5,375.5 C 244.833,376.167 246.167,376.833 247.5,377.5C 248.167,378.167 248.833,378.833 249.5,379.5C 247.527,388.775 246.86,398.442 247.5,408.5C 235.132,401.988 223.132,394.988 211.5,387.5C 223.328,385.831 234.661,382.665 245.5,378C 244.244,377.583 243.577,376.75 243.5,375.5 Z"/></g>
<g><path style="opacity:1" fill="#0d78b0" d="M 249.5,379.5 C 259.569,382.185 269.569,385.185 279.5,388.5C 269.122,395.528 258.455,402.195 247.5,408.5C 246.86,398.442 247.527,388.775 249.5,379.5 Z"/></g>
<g><path style="opacity:0.004" fill="#000000" d="M 131.5,391.5 C 132.833,392.167 132.833,392.167 131.5,391.5 Z"/></g>
<g><path style="opacity:1" fill="#0b67a1" d="M 197.5,379.5 C 201.038,381.769 204.705,383.769 208.5,385.5C 209.29,386.401 210.29,387.068 211.5,387.5C 223.132,394.988 235.132,401.988 247.5,408.5C 247.5,420.167 247.5,431.833 247.5,443.5C 245.49,444.349 243.823,443.682 242.5,441.5C 236.228,430.055 229.728,418.722 223,407.5C 222,406.833 221,406.167 220,405.5C 218.861,400.539 217.028,395.873 214.5,391.5C 210.227,389.516 205.893,387.682 201.5,386C 201.833,385.667 202.167,385.333 202.5,385C 201.1,383.562 199.433,382.729 197.5,382.5C 197.5,381.5 197.5,380.5 197.5,379.5 Z"/></g>
<g><path style="opacity:0.004" fill="#000000" d="M 110.5,402.5 C 111.833,403.167 111.833,403.167 110.5,402.5 Z"/></g>
<g><path style="opacity:1" fill="#051848" d="M 313.5,378.5 C 312.718,380.451 311.384,381.951 309.5,383C 310.357,383.689 311.023,384.522 311.5,385.5C 310.167,386.5 308.833,387.5 307.5,388.5C 309.585,389.541 311.252,391.041 312.5,393C 315.708,393.118 318.374,394.285 320.5,396.5C 325.572,393.581 330.739,390.914 336,388.5C 336.765,388.57 337.265,388.903 337.5,389.5C 321.971,399.096 306.304,408.43 290.5,417.5C 287.438,417.844 284.438,418.511 281.5,419.5C 279.535,423.215 277.202,423.382 274.5,420C 278.316,417.774 282.316,415.94 286.5,414.5C 285.53,410.069 287.197,407.735 291.5,407.5C 292.31,405.202 293.144,402.868 294,400.5C 299.256,393.065 304.756,385.731 310.5,378.5C 311.527,377.209 312.527,377.209 313.5,378.5 Z"/></g>
<g><path style="opacity:0.004" fill="#000000" d="M 24.5,406.5 C 25.8333,407.167 25.8333,407.167 24.5,406.5 Z"/></g>
<g><path style="opacity:1" fill="#051a50" d="M 284.5,386.5 C 282.514,389.138 281.014,392.138 280,395.5C 279,396.167 278,396.833 277,397.5C 276.251,400.757 274.584,403.424 272,405.5C 268.454,412.876 264.787,420.21 261,427.5C 259.833,428.667 258.667,429.833 257.5,431C 257.957,431.414 258.291,431.914 258.5,432.5C 255.997,435.427 253.664,438.427 251.5,441.5C 250.486,442.674 249.153,443.34 247.5,443.5C 247.5,431.833 247.5,420.167 247.5,408.5C 258.455,402.195 269.122,395.528 279.5,388.5C 280.492,388.672 281.158,388.338 281.5,387.5C 282.609,387.443 283.609,387.11 284.5,386.5 Z"/></g>
<g><path style="opacity:1" fill="#07568f" d="M 174.5,365.5 C 176.883,367.358 179.55,368.692 182.5,369.5C 187.477,372.8 192.477,376.133 197.5,379.5C 197.5,380.5 197.5,381.5 197.5,382.5C 199.433,382.729 201.1,383.562 202.5,385C 202.167,385.333 201.833,385.667 201.5,386C 205.893,387.682 210.227,389.516 214.5,391.5C 217.028,395.873 218.861,400.539 220,405.5C 221,406.167 222,406.833 223,407.5C 229.728,418.722 236.228,430.055 242.5,441.5C 234.82,437.33 227.487,432.663 220.5,427.5C 220.179,425.952 219.179,425.285 217.5,425.5C 217.246,422.986 216.413,420.652 215,418.5C 211.663,415.658 208.83,412.324 206.5,408.5C 205.675,407.614 204.675,407.281 203.5,407.5C 199.576,401.705 195.743,395.705 192,389.5C 186.332,384.001 181.832,377.667 178.5,370.5C 178.043,369.702 177.376,369.369 176.5,369.5C 175.4,368.395 174.733,367.062 174.5,365.5 Z"/></g>
<g><path style="opacity:0.004" fill="#000000" d="M 452.5,414.5 C 453.833,415.167 453.833,415.167 452.5,414.5 Z"/></g>
<g><path style="opacity:0.004" fill="#000000" d="M 205.5,420.5 C 206.833,421.167 206.833,421.167 205.5,420.5 Z"/></g>
<g><path style="opacity:0.004" fill="#000000" d="M 52.5,447.5 C 53.8333,448.167 53.8333,448.167 52.5,447.5 Z"/></g>
<g><path style="opacity:0.004" fill="#000000" d="M 204.5,461.5 C 205.833,462.167 205.833,462.167 204.5,461.5 Z"/></g>
<g><path style="opacity:0.004" fill="#000000" d="M 203.5,478.5 C 204.833,479.167 204.833,479.167 203.5,478.5 Z"/></g>
<g><path style="opacity:0.004" fill="#000000" d="M 182.5,481.5 C 183.833,482.167 183.833,482.167 182.5,481.5 Z"/></g>
<g><path style="opacity:0.004" fill="#000000" d="M 440.5,486.5 C 441.833,487.167 441.833,487.167 440.5,486.5 Z"/></g>
<g><path style="opacity:0.004" fill="#000000" d="M 103.5,489.5 C 104.833,490.167 104.833,490.167 103.5,489.5 Z"/></g>
<g><path style="opacity:0.004" fill="#000000" d="M 187.5,493.5 C 188.833,494.167 188.833,494.167 187.5,493.5 Z"/></g>
<g><path style="opacity:0.004" fill="#000000" d="M 453.5,494.5 C 454.833,495.167 454.833,495.167 453.5,494.5 Z"/></g>
<g><path style="opacity:0.004" fill="#000000" d="M 397.5,496.5 C 398.833,497.167 398.833,497.167 397.5,496.5 Z"/></g>
</svg>
